<?xml version="1.0" encoding="UTF-8" standalone="no" ?>
<!DOCTYPE svg PUBLIC "-//W3C//DTD SVG 1.1//EN" "http://www.w3.org/Graphics/SVG/1.1/DTD/svg11.dtd">
<svg xmlns="http://www.w3.org/2000/svg" xmlns:xlink="http://www.w3.org/1999/xlink" version="1.1" width="1280" height="1024" viewBox="0 0 1280 1024" xml:space="preserve">
<desc>Created with Fabric.js 4.4.0</desc>
<defs>
</defs>
<g transform="matrix(1 0 0 1 640 512)" id="background-logo"  >
<rect style="stroke: none; stroke-width: 0; stroke-dasharray: none; stroke-linecap: butt; stroke-dashoffset: 0; stroke-linejoin: miter; stroke-miterlimit: 4; fill: rgb(255,255,255); fill-rule: nonzero; opacity: 1;"  paint-order="stroke"  x="-640" y="-512" rx="0" ry="0" width="1280" height="1024" />
</g>
<g transform="matrix(1.9400248826287665 0 0 1.9400248826287665 640.3866099071208 512.171826625387)" id="logo-logo"  >
<g style=""  paint-order="stroke"   >
		<g transform="matrix(2.681523048533516 0 0 -2.681523048533516 0 0)"  >
<path style="stroke: none; stroke-width: 1; stroke-dasharray: none; stroke-linecap: butt; stroke-dashoffset: 0; stroke-linejoin: miter; stroke-miterlimit: 4; fill: rgb(165,166,165); fill-rule: nonzero; opacity: 1;"  paint-order="stroke"  transform=" translate(11.302715450048332, -13.965000000000003)" d="M 0 0 C -0.361 0 -0.654 0.293 -0.654 0.654 C -0.654 1.014 -0.36100000000000004 1.307 0 1.307 C 0.36 1.307 0.653 1.014 0.653 0.6539999999999999 C 0.653 0.293 0.36 0 0 0 M 0 1.912 C -0.694 1.912 -1.259 1.3479999999999999 -1.259 0.6539999999999999 C -1.259 -0.040000000000000036 -0.694 -0.605 0 -0.605 C 0.694 -0.605 1.259 -0.040000000000000036 1.259 0.6539999999999999 C 1.259 1.3479999999999999 0.694 1.912 0 1.912 M -25.097 20.833 C -24.737000000000002 20.833 -24.443 20.54 -24.443 20.18 C -24.443 19.819 -24.737000000000002 19.526 -25.097 19.526 C -25.457 19.526 -25.75 19.819 -25.75 20.18 C -25.75 20.54 -25.457 20.833 -25.097 20.833 M -25.097 18.921 C -24.403000000000002 18.921 -23.838 19.485 -23.838 20.18 C -23.838 20.874 -24.403000000000002 21.439 -25.097 21.439 C -25.791 21.439 -26.356 20.874 -26.356 20.18 C -26.356 19.485 -25.791 18.921 -25.097 18.921 M -4.343 22.834 C -3.982 22.834 -3.689 22.541 -3.689 22.18 C -3.689 21.82 -3.982 21.527 -4.343 21.527 C -4.703 21.527 -4.996 21.82 -4.996 22.18 C -4.996 22.541 -4.703 22.834 -4.343 22.834 M -4.343 20.921 C -3.649 20.921 -3.083 21.486 -3.083 22.18 C -3.083 22.874 -3.649 23.439 -4.343 23.439 C -5.037 23.439 -5.601 22.874 -5.601 22.18 C -5.601 21.486 -5.037 20.921 -4.343 20.921 M 2.045 27.451999999999998 C 2.246 27.674999999999997 2.3569999999999998 27.962 2.3569999999999998 28.262999999999998 L 2.3569999999999998 37.125 C 2.9099999999999997 37.363 3.3779999999999997 37.758 3.7089999999999996 38.263 L 10.666 36.406 C 10.816 36.366 10.97 36.356 11.128 36.374 L 22.252000000000002 37.761 C 22.538000000000004 37.262 22.958000000000002 36.852000000000004 23.46 36.581 L 23.46 35.97 L 17.9 30.343 C 17.675 30.115 17.551 29.812 17.551 29.492 L 17.551 7.892 C 16.427 7.408 15.686 6.303 15.686 5.078 C 15.686 4.654 15.778 4.237 15.961 3.8360000000000003 L 9.55 -3.088 C 8.727 -2.791 7.803000000000001 -2.868 7.038 -3.293 L 2.965 -0.121 C 3.038 0.14700000000000002 3.0749999999999997 0.403 3.0749999999999997 0.654 C 3.0749999999999997 1.084 2.9789999999999996 1.508 2.7899999999999996 1.916 L 9.415 9.177999999999999 C 9.856 9.661 9.828 10.421999999999999 9.353 10.872 L -1.462 21.119 C -1.3319999999999999 21.463 -1.267 21.82 -1.267 22.18 C -1.267 22.618 -1.3659999999999999 23.047 -1.559 23.458 z M -1.873 22.18 C -1.873 21.836 -1.948 21.494 -2.096 21.167 L -2.185 20.971 L 8.936 10.433 C 9.175 10.207 9.188 9.828 8.968 9.585 L 2.058 2.011 L 2.161 1.822 C 2.365 1.444 2.469 1.051 2.469 0.654 C 2.469 0.406 2.423 0.148 2.327 -0.134 L 2.258 -0.338 L 7 -4.031 L 7.181 -3.913 C 7.873 -3.4629999999999996 8.751 -3.389 9.509 -3.723 L 9.707 -3.81 L 16.693 3.736 L 16.592000000000002 3.926 C 16.393 4.298 16.291000000000004 4.686 16.291000000000004 5.078 C 16.291000000000004 6.119 16.959000000000003 7.0520000000000005 17.953000000000003 7.399000000000001 L 18.156000000000002 7.470000000000001 L 18.156000000000002 29.491999999999997 C 18.156000000000002 29.651999999999997 18.218000000000004 29.802999999999997 18.330000000000002 29.916999999999998 L 24.066000000000003 35.721 L 24.066000000000003 36.961999999999996 L 23.889000000000003 37.043 C 23.370000000000005 37.281 22.945000000000004 37.699 22.694000000000003 38.219 L 22.6 38.415 L 11.054 36.975 C 10.975 36.966 10.896 36.971000000000004 10.822000000000001 36.991 L 3.416 38.968 L 3.302 38.76 C 3.007 38.224 2.529 37.818 1.955 37.617 L 1.752 37.546 L 1.752 28.262999999999998 C 1.752 28.113 1.697 27.968999999999998 1.596 27.857999999999997 L -2.292 23.548999999999996 L -2.1879999999999997 23.359999999999996 C -1.9789999999999996 22.980999999999995 -1.8729999999999998 22.583999999999996 -1.8729999999999998 22.179999999999996 M 0.4930000000000003 39.93899999999999 C 0.4930000000000003 40.29899999999999 0.7860000000000003 40.59199999999999 1.1470000000000002 40.59199999999999 C 1.5070000000000001 40.59199999999999 1.8010000000000002 40.29899999999999 1.8010000000000002 39.93899999999999 C 1.8010000000000002 39.577999999999996 1.5070000000000001 39.28499999999999 1.1470000000000002 39.28499999999999 C 0.7860000000000003 39.28499999999999 0.4930000000000002 39.57799999999999 0.4930000000000002 39.93899999999999 M 2.406 39.93899999999999 C 2.406 40.632999999999996 1.8410000000000002 41.196999999999996 1.1470000000000002 41.196999999999996 C 0.4530000000000003 41.196999999999996 -0.11199999999999966 40.632999999999996 -0.11199999999999966 39.93899999999999 C -0.11199999999999966 39.24399999999999 0.4530000000000003 38.678999999999995 1.1470000000000002 38.678999999999995 C 1.8410000000000002 38.678999999999995 2.406 39.24399999999999 2.406 39.93899999999999 M -33.262 21.106 C -32.902 21.106 -32.609 20.813000000000002 -32.609 20.453000000000003 C -32.609 20.092000000000002 -32.902 19.799000000000003 -33.262 19.799000000000003 C -33.623 19.799000000000003 -33.916000000000004 20.092000000000002 -33.916000000000004 20.453000000000003 C -33.916000000000004 20.813000000000002 -33.623000000000005 21.106 -33.262 21.106 M -33.262 19.194000000000003 C -32.568 19.194000000000003 -32.004 19.759000000000004 -32.004 20.453000000000003 C -32.004 21.147000000000002 -32.568 21.712000000000003 -33.262 21.712000000000003 C -33.957 21.712000000000003 -34.522 21.147000000000002 -34.522 20.453000000000003 C -34.522 19.759000000000004 -33.957 19.194000000000003 -33.262 19.194000000000003 M 8.52 -6.636 C 8.16 -6.636 7.866 -6.343 7.866 -5.982 C 7.866 -5.622 8.16 -5.329000000000001 8.52 -5.329000000000001 C 8.881 -5.329000000000001 9.174 -5.622000000000001 9.174 -5.982000000000001 C 9.174 -6.343000000000001 8.881 -6.636000000000001 8.52 -6.636000000000001 M 8.52 -4.723000000000001 C 7.826 -4.723000000000001 7.260999999999999 -5.288 7.260999999999999 -5.982000000000001 C 7.260999999999999 -6.676000000000001 7.825999999999999 -7.241000000000001 8.52 -7.241000000000001 C 9.213999999999999 -7.241000000000001 9.779 -6.676000000000002 9.779 -5.982000000000001 C 9.779 -5.288000000000001 9.214 -4.723000000000001 8.52 -4.723000000000001 M 34.791 8.153 C 34.431 8.153 34.138 8.446 34.138 8.806000000000001 C 34.138 9.167000000000002 34.431 9.46 34.791 9.46 C 35.150999999999996 9.46 35.445 9.167000000000002 35.445 8.806000000000001 C 35.445 8.446000000000002 35.151 8.153 34.791 8.153 M 34.791 10.065000000000001 C 34.096999999999994 10.065000000000001 33.532 9.500000000000002 33.532 8.806000000000001 C 33.532 8.112000000000002 34.096999999999994 7.547000000000001 34.791 7.547000000000001 C 35.485 7.547000000000001 36.05 8.112 36.05 8.806000000000001 C 36.05 9.5 35.485 10.065000000000001 34.791 10.065000000000001 M -18.579 -0.66 C -18.77 -0.742 -18.952 -0.8440000000000001 -19.123 -0.964 C -23.520000000000003 1.71 -26.218 3.0660000000000003 -27.145000000000003 3.0660000000000003 C -28.486000000000004 3.0660000000000003 -30.165000000000003 1.2770000000000004 -32.133 -2.2479999999999998 C -33.45 -4.59 -35 -6.177 -35.404 -6.273999999999999 C -36.976000000000006 -5.597999999999999 -42.68900000000001 0.3180000000000005 -43.069 1.229000000000001 C -43.305 1.7950000000000008 -43.613 2.640000000000001 -43.946000000000005 3.555000000000001 C -44.354000000000006 4.674000000000001 -44.776 5.831000000000001 -45.14900000000001 6.702000000000001 C -45.91400000000001 8.487 -49.989000000000004 12.857000000000001 -53.653000000000006 15.411000000000001 C -55.354000000000006 16.597 -56.505 18.005000000000003 -57.226000000000006 19.105 L -36.02300000000001 19.105 C -35.50800000000001 18.049 -34.44600000000001 17.378 -33.26200000000001 17.378 C -32.07900000000001 17.378 -31.017000000000007 18.049 -30.50200000000001 19.105 L -27.96400000000001 19.105 C -27.70000000000001 18.397000000000002 -27.18900000000001 17.813 -26.52600000000001 17.463 L -26.52600000000001 13.434000000000001 C -26.52600000000001 13.122000000000002 -26.408000000000012 12.826 -26.193000000000012 12.600000000000001 L -18.57900000000001 4.594000000000001 z M -17.974 -1.081 L -17.974 4.836 L -25.754 13.017 C -25.862000000000002 13.129999999999999 -25.921000000000003 13.277999999999999 -25.921000000000003 13.434 L -25.921000000000003 17.848 L -26.1 17.927999999999997 C -26.757 18.221999999999998 -27.251 18.792999999999996 -27.455000000000002 19.493 L -27.519000000000002 19.711 L -30.901000000000003 19.711 L -30.978000000000005 19.523 C -31.360000000000007 18.587 -32.257000000000005 17.983 -33.26200000000001 17.983 C -34.26800000000001 17.983 -35.16400000000001 18.587 -35.54700000000001 19.522000000000002 L -35.62300000000001 19.711000000000002 L -58.307000000000016 19.711000000000002 L -58.033000000000015 19.253000000000004 C -57.317000000000014 18.057000000000002 -56.036000000000016 16.334000000000003 -53.99900000000002 14.914000000000003 C -50.411000000000016 12.414000000000003 -46.44000000000002 8.177000000000003 -45.70500000000001 6.463000000000003 C -45.33900000000001 5.608000000000002 -44.920000000000016 4.459000000000003 -44.50800000000001 3.328000000000003 C -44.17900000000001 2.426000000000003 -43.86900000000001 1.575000000000003 -43.62700000000001 0.9960000000000031 C -43.17500000000001 -0.08999999999999697 -37.21600000000001 -6.242999999999997 -35.56300000000001 -6.862999999999997 L -35.48800000000001 -6.880999999999997 C -35.474000000000004 -6.881999999999997 -35.459 -6.8829999999999965 -35.44400000000001 -6.8829999999999965 C -34.61700000000001 -6.881999999999996 -32.77500000000001 -4.6249999999999964 -31.60500000000001 -2.543999999999996 C -29.80300000000001 0.6830000000000038 -28.220000000000013 2.4600000000000035 -27.14500000000001 2.4600000000000035 C -26.68000000000001 2.4600000000000035 -25.03800000000001 1.9350000000000036 -19.263000000000012 -1.5879999999999965 L -19.080000000000013 -1.6989999999999965 L -18.914000000000012 -1.5639999999999965 C -18.69200000000001 -1.3839999999999966 -18.444000000000013 -1.2459999999999964 -18.177000000000014 -1.1519999999999966 z M 35.6 6.485 L 35.397 6.414 L 35.397 2.183 C 35.397 1.9739999999999998 35.292 1.783 35.115 1.6709999999999998 L 15.024000000000001 -11.035 L 8.754000000000001 -21.131999999999998 L 8.759000000000002 -21.226999999999997 C 9.368000000000002 -31.964999999999996 8.847000000000001 -32.43299999999999 8.595000000000002 -32.659 C 8.461000000000002 -32.778999999999996 8.242000000000003 -32.858 8.039000000000001 -32.824 C 7.843000000000002 -32.791 6.722000000000001 -32.617 5.2570000000000014 -32.391999999999996 L 5.0470000000000015 -32.358999999999995 L 4.945000000000001 -32.54599999999999 C 4.508000000000001 -33.34799999999999 3.6800000000000015 -33.84599999999999 2.785000000000001 -33.84599999999999 C 1.605000000000001 -33.84599999999999 0.5860000000000012 -33.00399999999999 0.3640000000000012 -31.84399999999999 L 0.32300000000000123 -31.63399999999999 L -3.3139999999999987 -31.07699999999999 C -3.5039999999999987 -31.04799999999999 -3.6699999999999986 -30.92899999999999 -3.7589999999999986 -30.75999999999999 L -16.695 -6.064999999999991 L -16.821 -5.87799999999999 L -17.034000000000002 -5.90899999999999 C -17.144000000000002 -5.92599999999999 -17.254 -5.94299999999999 -17.369000000000003 -5.94299999999999 C -18.731 -5.94299999999999 -19.838000000000005 -4.83599999999999 -19.838000000000005 -3.47399999999999 C -19.838000000000005 -3.30199999999999 -19.818000000000005 -3.12699999999999 -19.776000000000003 -2.93799999999999 L -19.728000000000005 -2.7259999999999898 L -19.915000000000006 -2.6139999999999897 C -22.781000000000006 -0.8769999999999896 -26.163000000000007 1.0460000000000105 -27.059000000000005 1.2350000000000105 L -27.153000000000006 1.2550000000000106 L -27.241000000000007 1.2170000000000105 C -27.966000000000008 0.9030000000000105 -29.492000000000008 -1.2429999999999894 -30.549000000000007 -3.1359999999999895 C -31.301000000000005 -4.4739999999999895 -33.915000000000006 -8.77999999999999 -35.98800000000001 -7.99599999999999 C -37.96600000000001 -7.25499999999999 -44.184000000000005 -0.8149999999999897 -44.745000000000005 0.53000000000001 C -44.99700000000001 1.13600000000001 -45.313 2.00200000000001 -45.653000000000006 2.93300000000001 C -46.053000000000004 4.03100000000001 -46.467000000000006 5.1670000000000105 -46.818000000000005 5.9860000000000095 C -47.409000000000006 7.36400000000001 -51.17100000000001 11.46700000000001 -54.691 13.92100000000001 C -58.406000000000006 16.51000000000001 -59.769000000000005 19.95200000000001 -59.825 20.09800000000001 C -59.897000000000006 20.28400000000001 -59.873000000000005 20.49300000000001 -59.760000000000005 20.65800000000001 C -59.647000000000006 20.823000000000008 -59.46000000000001 20.92100000000001 -59.261 20.92100000000001 L -35.685 20.92100000000001 L -35.621 21.13900000000001 C -35.399 21.90100000000001 -34.819 22.51200000000001 -34.071000000000005 22.77400000000001 L -33.868 22.845000000000013 L -33.868 34.14100000000001 C -33.868 34.37100000000001 -33.734 34.585000000000015 -33.527 34.686000000000014 L -22.527 40.030000000000015 L -22.527 43.96400000000001 L -22.714000000000002 44.042000000000016 C -23.712000000000003 44.45900000000002 -26.201 45.701000000000015 -27.749000000000002 48.22000000000001 L -27.85 48.38500000000001 L -28.134 48.350000000000016 C -28.201 48.341000000000015 -28.269000000000002 48.33100000000002 -28.34 48.33100000000002 C -29.701 48.33100000000002 -30.809 49.43800000000002 -30.809 50.80000000000002 C -30.809 52.16200000000002 -29.701 53.27000000000002 -28.34 53.27000000000002 C -26.978 53.27000000000002 -25.87 52.16200000000002 -25.87 50.80000000000002 C -25.87 50.15300000000002 -26.121000000000002 49.54100000000002 -26.578 49.07500000000002 L -26.748 48.902000000000015 L -26.615000000000002 48.698000000000015 C -25.549000000000003 47.057000000000016 -24.044 46.052000000000014 -22.968000000000004 45.49900000000002 L -22.527000000000005 45.27200000000002 L -22.527000000000005 53.64500000000002 L -22.730000000000004 53.716000000000015 C -23.724000000000004 54.064000000000014 -24.391000000000005 54.997000000000014 -24.391000000000005 56.03700000000001 C -24.391000000000005 57.399000000000015 -23.284000000000006 58.50700000000001 -21.922000000000004 58.50700000000001 C -20.560000000000002 58.50700000000001 -19.452000000000005 57.399000000000015 -19.452000000000005 56.03700000000001 C -19.452000000000005 54.997000000000014 -20.120000000000005 54.064000000000014 -21.114000000000004 53.716000000000015 L -21.317000000000004 53.64500000000002 L -21.317000000000004 40.643 L -20.859000000000005 40.916000000000004 C -19.777000000000005 41.56100000000001 -18.279000000000003 42.6 -17.289000000000005 43.888000000000005 L -17.133000000000006 44.09100000000001 L -17.307000000000006 44.278000000000006 C -17.737000000000005 44.74000000000001 -17.974000000000007 45.33500000000001 -17.974000000000007 45.953 C -17.974000000000007 47.315000000000005 -16.866000000000007 48.422000000000004 -15.505000000000008 48.422000000000004 C -14.143000000000008 48.422000000000004 -13.035000000000007 47.315000000000005 -13.035000000000007 45.953 C -13.035000000000007 44.591 -14.143000000000008 43.483000000000004 -15.505000000000008 43.483000000000004 C -15.621000000000008 43.483000000000004 -15.733000000000008 43.501000000000005 -15.867000000000008 43.521 L -16.050000000000008 43.548 L -16.15800000000001 43.398 C -18.00400000000001 40.82 -21.506000000000007 39.17700000000001 -21.65900000000001 39.106 L -32.657 33.762 L -32.657 22.845 L -32.45399999999999 22.773999999999997 C -31.705999999999992 22.511999999999997 -31.125999999999994 21.900999999999996 -30.902999999999995 21.138999999999996 L -30.839999999999996 20.920999999999996 L -27.457999999999995 20.920999999999996 L -27.380999999999993 21.108999999999995 C -26.99899999999999 22.044999999999995 -26.101999999999993 22.648999999999994 -25.096999999999994 22.648999999999994 C -23.734999999999992 22.648999999999994 -22.626999999999995 21.540999999999993 -22.626999999999995 20.179999999999993 C -22.626999999999995 19.89699999999999 -22.683999999999994 19.606999999999992 -22.792999999999996 19.314999999999994 L -22.870999999999995 19.110999999999994 L -15.514999999999995 13.138999999999992 L -9.154999999999994 13.138999999999992 L -5.891999999999994 20.252999999999993 L -6.046999999999994 20.401999999999994 C -6.539999999999995 20.874999999999993 -6.811999999999994 21.505999999999993 -6.811999999999994 22.179999999999993 C -6.811999999999994 23.541999999999994 -5.7039999999999935 24.64999999999999 -4.342999999999995 24.64999999999999 C -4.008999999999995 24.64999999999999 -3.6849999999999947 24.583999999999993 -3.3799999999999946 24.45499999999999 L -3.1819999999999946 24.36999999999999 L 0.5410000000000053 28.49599999999999 L 0.5410000000000053 37.54599999999999 L 0.33900000000000524 37.61699999999999 C -0.6549999999999947 37.96499999999999 -1.3229999999999946 38.89799999999999 -1.3239999999999947 39.92399999999999 L -1.3099999999999947 40.22999999999999 L -10.041999999999994 42.56099999999999 C -10.304999999999994 42.63199999999999 -10.488999999999994 42.870999999999995 -10.490999999999994 43.142999999999994 L -10.596999999999994 60.565 L -32.657 60.565 L -32.657 44.091 L -32.45399999999999 44.02 C -31.460999999999995 43.673 -30.792999999999992 42.74 -30.792999999999992 41.699000000000005 C -30.792999999999992 40.337 -31.900999999999993 39.229000000000006 -33.26199999999999 39.229000000000006 C -34.623999999999995 39.229000000000006 -35.73199999999999 40.337 -35.73199999999999 41.699000000000005 C -35.73199999999999 42.74 -35.06499999999999 43.673 -34.07099999999999 44.02 L -33.86799999999999 44.091 L -33.86799999999999 61.17 C -33.86799999999999 61.504000000000005 -33.59599999999999 61.776 -33.261999999999986 61.776 L -9.994999999999987 61.776 C -9.663999999999987 61.776 -9.391999999999987 61.506 -9.389999999999986 61.17400000000001 L -9.282999999999987 43.61200000000001 L -0.8629999999999871 41.36400000000001 L -0.7389999999999871 41.512000000000015 C -0.26299999999998713 42.08100000000002 0.4240000000000129 42.408000000000015 1.1470000000000127 42.408000000000015 C 2.3460000000000125 42.408000000000015 3.367000000000013 41.54700000000002 3.573000000000013 40.36100000000002 L 3.6070000000000126 40.170000000000016 L 11.020000000000014 38.19100000000002 L 22.460000000000015 39.61700000000002 L 22.507000000000016 39.82500000000002 C 22.759000000000015 40.942000000000014 23.771000000000015 41.753000000000014 24.912000000000017 41.753000000000014 C 26.218000000000018 41.753000000000014 27.296000000000017 40.72600000000001 27.36700000000002 39.41500000000001 L 27.37900000000002 39.195000000000014 L 32.54300000000002 37.83300000000001 C 32.80800000000002 37.76300000000001 32.99400000000002 37.52200000000001 32.99400000000002 37.24800000000001 L 32.99400000000002 22.11 L 35.322000000000024 17.877 C 35.37100000000002 17.787 35.39700000000003 17.686999999999998 35.39700000000003 17.584999999999997 L 35.39700000000003 11.198 L 35.6 11.127 C 36.593 10.780000000000001 37.261 9.847000000000001 37.261 8.806000000000001 C 37.261 7.766000000000001 36.593 6.833000000000001 35.6 6.485000000000001 M 36.002 11.620000000000001 L 36.002 17.585 C 36.002 17.788 35.951 17.989 35.853 18.168 L 33.599000000000004 22.266 L 33.599000000000004 37.248 C 33.599000000000004 37.797 33.228 38.278999999999996 32.697 38.418 L 27.952 39.67 C 27.76 41.194 26.465000000000003 42.358000000000004 24.912000000000003 42.358000000000004 C 23.563000000000002 42.358000000000004 22.358000000000004 41.44800000000001 21.971000000000004 40.166000000000004 L 11.063 38.806 L 4.13 40.657 C 3.8 42.034 2.575 43.013 1.1469999999999998 43.013 C 0.30899999999999983 43.013 -0.4900000000000002 42.663 -1.0740000000000003 42.046 L -8.68 44.078 L -8.783999999999999 61.178000000000004 C -8.789 61.841 -9.331 62.38100000000001 -9.995 62.38100000000001 L -33.262 62.38100000000001 C -33.93 62.38100000000001 -34.473 61.83800000000001 -34.473 61.17000000000001 L -34.473 44.513 C -35.597 44.03 -36.338 42.925 -36.338 41.699 C -36.338 40.004 -34.958 38.623999999999995 -33.262 38.623999999999995 C -31.567 38.623999999999995 -30.188000000000002 40.004 -30.188000000000002 41.699 C -30.188000000000002 42.925 -30.928 44.03 -32.052 44.513 L -32.052 59.96 L -11.198999999999998 59.96 L -11.095999999999998 43.138999999999996 C -11.093999999999998 42.595 -10.723999999999998 42.117 -10.197999999999999 41.977 L -1.9239999999999995 39.766999999999996 C -1.8579999999999994 38.611 -1.1349999999999993 37.584999999999994 -0.06399999999999939 37.12499999999999 L -0.06399999999999939 28.729 L -3.348 25.09 C -3.667 25.2 -4.0009999999999994 25.255 -4.343 25.255 C -6.038 25.255 -7.417 23.875999999999998 -7.417 22.18 C -7.417 21.412 -7.135 20.689 -6.617999999999999 20.121 L -9.543 13.744 L -15.3 13.744 L -22.156 19.31 C -22.067 19.601 -22.022 19.892999999999997 -22.022 20.18 C -22.022 21.875 -23.401999999999997 23.255 -25.096999999999998 23.255 C -26.281 23.255 -27.342999999999996 22.583 -27.857999999999997 21.526999999999997 L -30.394999999999996 21.526999999999997 C -30.687999999999995 22.305999999999997 -31.287999999999997 22.935999999999996 -32.05199999999999 23.266 L -32.05199999999999 33.382999999999996 L -21.39999999999999 38.559 C -21.24799999999999 38.629 -17.73699999999999 40.277 -15.774999999999991 42.897 C -15.685999999999991 42.885999999999996 -15.595999999999991 42.878 -15.504999999999992 42.878 C -13.808999999999992 42.878 -12.428999999999991 44.257 -12.428999999999991 45.953 C -12.428999999999991 47.648 -13.80899999999999 49.028000000000006 -15.504999999999992 49.028000000000006 C -17.199999999999992 49.028000000000006 -18.578999999999994 47.648 -18.578999999999994 45.953 C -18.578999999999994 45.268 -18.346999999999994 44.607 -17.920999999999992 44.066 C -18.71399999999999 43.107 -19.80099999999999 42.298 -20.71099999999999 41.718 L -20.71099999999999 53.223000000000006 C -19.58799999999999 53.70700000000001 -18.84699999999999 54.812000000000005 -18.84699999999999 56.037000000000006 C -18.84699999999999 57.733000000000004 -20.22699999999999 59.11200000000001 -21.92199999999999 59.11200000000001 C -23.61799999999999 59.11200000000001 -24.99699999999999 57.73300000000001 -24.99699999999999 56.037000000000006 C -24.99699999999999 54.812000000000005 -24.25599999999999 53.70700000000001 -23.13299999999999 53.224000000000004 L -23.13299999999999 46.278000000000006 C -24.03799999999999 46.80200000000001 -25.13699999999999 47.623000000000005 -25.97899999999999 48.83500000000001 C -25.515999999999988 49.388000000000005 -25.26399999999999 50.077000000000005 -25.26399999999999 50.80000000000001 C -25.26399999999999 52.49500000000001 -26.643999999999988 53.875000000000014 -28.33999999999999 53.875000000000014 C -30.03499999999999 53.875000000000014 -31.41499999999999 52.49500000000001 -31.41499999999999 50.80000000000001 C -31.41499999999999 49.10500000000001 -30.03499999999999 47.72500000000001 -28.33999999999999 47.72500000000001 C -28.27899999999999 47.72500000000001 -28.21899999999999 47.73000000000001 -28.15999999999999 47.73600000000001 C -26.60699999999999 45.32200000000001 -24.25799999999999 44.05900000000001 -23.13299999999999 43.56300000000001 L -23.13299999999999 40.409 L -33.791 35.23 C -34.205999999999996 35.028999999999996 -34.473 34.601 -34.473 34.141 L -34.473 23.266 C -35.237 22.936 -35.836999999999996 22.305999999999997 -36.129999999999995 21.526999999999997 L -59.260999999999996 21.526999999999997 C -59.66 21.526999999999997 -60.032999999999994 21.33 -60.25899999999999 20.999999999999996 C -60.48499999999999 20.670999999999996 -60.53399999999999 20.251999999999995 -60.38999999999999 19.878999999999998 C -60.330999999999996 19.726999999999997 -58.901999999999994 16.118 -55.03699999999999 13.423999999999998 C -51.59499999999999 11.024999999999999 -47.93799999999999 7.062999999999998 -47.373999999999995 5.7479999999999976 C -47.029999999999994 4.942999999999998 -46.61899999999999 3.8159999999999976 -46.215999999999994 2.7109999999999976 C -45.879999999999995 1.7879999999999976 -45.56199999999999 0.9159999999999977 -45.303999999999995 0.2969999999999975 C -44.669 -1.2280000000000024 -38.373 -7.749000000000002 -36.20099999999999 -8.563000000000002 C -33.83599999999999 -9.453000000000003 -31.313999999999993 -5.7310000000000025 -30.020999999999994 -3.432000000000002 C -28.823999999999995 -1.2890000000000024 -27.561999999999994 0.29199999999999804 -27.081999999999994 0.6149999999999975 C -26.279999999999994 0.36899999999999755 -23.661999999999992 -1.0570000000000024 -20.407999999999994 -3.0230000000000024 C -20.431999999999995 -3.1770000000000023 -20.443999999999996 -3.3260000000000023 -20.443999999999996 -3.4740000000000024 C -20.443999999999996 -5.169000000000002 -19.063999999999997 -6.549000000000003 -17.368999999999996 -6.549000000000003 C -17.289999999999996 -6.549000000000003 -17.212999999999997 -6.543000000000003 -17.132999999999996 -6.534000000000003 L -4.294999999999996 -31.041000000000004 C -4.116999999999996 -31.380000000000003 -3.7849999999999966 -31.617000000000004 -3.405999999999996 -31.675000000000004 L -0.18299999999999628 -32.169000000000004 C 0.1730000000000037 -33.50300000000001 1.3880000000000037 -34.45100000000001 2.7850000000000037 -34.45100000000001 C 3.831000000000004 -34.45100000000001 4.802000000000003 -33.90800000000001 5.3670000000000035 -33.02100000000001 C 6.728000000000003 -33.23100000000001 7.753000000000004 -33.39000000000001 7.937000000000003 -33.42000000000001 C 8.297000000000002 -33.48300000000001 8.730000000000002 -33.351000000000006 9.000000000000004 -33.10900000000001 C 9.462000000000003 -32.69400000000001 9.986000000000004 -32.22400000000001 9.368000000000004 -21.28800000000001 L 15.465000000000003 -11.47200000000001 L 35.438 1.1599999999999895 C 35.792 1.3829999999999896 36.002 1.7649999999999895 36.002 2.182999999999989 L 36.002 5.99299999999999 C 37.125 6.475999999999989 37.866 7.58099999999999 37.866 8.80599999999999 C 37.866 10.03199999999999 37.125 11.13699999999999 36.002 11.61999999999999 M 33.581 2.85 L 13.936 -9.575 C 13.782 -9.672 13.65 -9.805 13.554 -9.959 L 7.109 -20.337 C 6.977 -20.549 6.915 -20.794 6.929 -21.044999999999998 C 7.132000000000001 -24.561 7.28 -28.918999999999997 7.195 -30.854 L 5.773000000000001 -30.634 L 5.7620000000000005 -30.632 C 5.487 -29.532 4.620000000000001 -28.67 3.5180000000000002 -28.398000000000003 L 2.396 -18.383000000000003 L 8.087 -9.025000000000002 C 9.963 -9.302000000000001 11.594999999999999 -7.822000000000002 11.594999999999999 -5.982000000000002 C 11.594999999999999 -5.559000000000002 11.502999999999998 -5.142000000000002 11.319999999999999 -4.740000000000002 L 17.730999999999998 2.1839999999999984 C 18.063999999999997 2.0629999999999984 18.409999999999997 2.0029999999999983 18.761 2.0029999999999983 C 20.243 2.0029999999999983 21.500999999999998 3.0679999999999983 21.77 4.5139999999999985 L 32.383 6.9 C 32.698 6.504 33.106 6.195 33.581 5.992 Z M 32.758 7.41 L 32.641 7.579 L 21.225 5.011 L 21.2 4.798 C 21.057 3.55 20.009 2.608 18.761 2.608 C 18.423 2.608 18.09 2.6790000000000003 17.772 2.819 L 17.573999999999998 2.905 L 10.587999999999997 -4.640000000000001 L 10.688999999999998 -4.830000000000001 C 10.888999999999998 -5.203000000000001 10.989999999999998 -5.591000000000001 10.989999999999998 -5.982000000000001 C 10.989999999999998 -7.344000000000001 9.881999999999998 -8.452000000000002 8.519999999999998 -8.452000000000002 C 8.350999999999997 -8.452000000000002 8.179999999999998 -8.433000000000002 7.998999999999998 -8.394000000000002 L 7.789999999999998 -8.349000000000002 L 1.7719999999999985 -18.246000000000002 L 2.9669999999999987 -28.911 L 3.191999999999999 -28.949 C 4.219999999999999 -29.121000000000002 5.031999999999999 -29.926000000000002 5.211999999999999 -30.952 L 5.248999999999999 -31.165000000000003 L 7.757999999999999 -31.553000000000004 L 7.780999999999999 -31.225000000000005 C 7.909999999999998 -29.394000000000005 7.7429999999999986 -24.646000000000004 7.533999999999999 -21.010000000000005 C 7.525999999999999 -20.884000000000004 7.557999999999999 -20.762000000000004 7.622999999999999 -20.656000000000006 L 14.068999999999999 -10.278000000000006 C 14.116999999999999 -10.201000000000006 14.181999999999999 -10.135000000000005 14.26 -10.086000000000006 L 34.186 2.517 L 34.186 6.414 L 33.983 6.485 C 33.477 6.662 33.053 6.982 32.758 7.41 M 2.785 -32.03 C 2.4250000000000003 -32.03 2.132 -31.737000000000002 2.132 -31.376 C 2.132 -31.016000000000002 2.4250000000000003 -30.723000000000003 2.785 -30.723000000000003 C 3.146 -30.723000000000003 3.439 -31.016000000000002 3.439 -31.376 C 3.439 -31.737000000000002 3.146 -32.03 2.785 -32.03 M 2.785 -30.117 C 2.091 -30.117 1.5260000000000002 -30.682000000000002 1.5260000000000002 -31.376 C 1.5260000000000002 -32.07 2.091 -32.635 2.785 -32.635 C 3.479 -32.635 4.0440000000000005 -32.07 4.0440000000000005 -31.375999999999998 C 4.0440000000000005 -30.682 3.4790000000000005 -30.116999999999997 2.7850000000000006 -30.116999999999997 M -17.369 -4.126999999999999 C -17.729 -4.126999999999999 -18.022 -3.8339999999999987 -18.022 -3.473999999999999 C -18.022 -3.1129999999999987 -17.729 -2.819999999999999 -17.369 -2.819999999999999 C -17.009 -2.819999999999999 -16.715 -3.112999999999999 -16.715 -3.473999999999999 C -16.715 -3.8339999999999987 -17.009 -4.126999999999999 -17.369 -4.126999999999999 M -17.369 -2.2139999999999986 C -18.063 -2.2139999999999986 -18.628 -2.7789999999999986 -18.628 -3.4739999999999984 C -18.628 -4.167999999999998 -18.063 -4.732999999999999 -17.369 -4.732999999999999 C -16.675 -4.732999999999999 -16.11 -4.167999999999999 -16.11 -3.473999999999999 C -16.11 -2.778999999999999 -16.675 -2.2139999999999986 -17.369 -2.2139999999999986 M 0.17600000000000193 -29.773999999999997 L -2.433999999999998 -29.374 L -14.988999999999997 -5.407999999999998 C -14.811999999999998 -5.189999999999998 -14.666999999999998 -4.947999999999998 -14.554999999999998 -4.6839999999999975 L -6.690999999999998 -4.6839999999999975 C -6.464999999999998 -4.6839999999999975 -6.244999999999998 -4.621999999999997 -6.054999999999998 -4.503999999999998 L -1.7579999999999982 -1.852999999999998 C -0.8049999999999983 -2.530999999999998 0.47100000000000186 -2.595999999999998 1.4810000000000016 -2.034999999999998 L 5.556 -5.208 C 5.481 -5.476 5.445 -5.731 5.445 -5.982 C 5.445 -6.62 5.6450000000000005 -7.229 6.024 -7.756 L 0.1120000000000001 -17.479 C -0.026999999999999913 -17.707 -0.08599999999999991 -17.977999999999998 -0.05699999999999991 -18.242 L 1.1280000000000001 -28.803 C 0.7410000000000001 -29.052 0.41700000000000015 -29.383 0.17600000000000016 -29.774 M 1.7730000000000001 -29.129 L 0.5450000000000002 -18.175 C 0.5300000000000001 -18.043 0.5600000000000002 -17.907 0.6290000000000001 -17.793 L 6.7620000000000005 -7.709 L 6.6240000000000006 -7.542999999999999 C 6.2490000000000006 -7.087999999999999 6.050000000000001 -6.547999999999999 6.050000000000001 -5.981999999999999 C 6.050000000000001 -5.733999999999999 6.097 -5.475999999999999 6.1930000000000005 -5.194999999999999 L 6.262 -4.991 L 1.52 -1.298 L 1.339 -1.415 C 0.45599999999999996 -1.9889999999999999 -0.7160000000000002 -1.932 -1.549 -1.252 L -1.716 -1.116 L -6.3740000000000006 -3.9890000000000003 C -6.468000000000001 -4.048 -6.578 -4.079000000000001 -6.691000000000001 -4.079000000000001 L -14.976 -4.079000000000001 L -15.047 -4.281000000000001 C -15.164000000000001 -4.6160000000000005 -15.341000000000001 -4.91 -15.573 -5.157000000000001 L -15.72 -5.314000000000001 L -2.9000000000000004 -29.791 L -2.8280000000000003 -29.926000000000002 L 0.5049999999999999 -30.437 L 0.6049999999999999 -30.245 C 0.8289999999999998 -29.815 1.1719999999999997 -29.463 1.597 -29.226000000000003 z M -24.105 17.28 C -23.968 17.327 -23.835 17.384 -23.706 17.449 L -16.493 11.594000000000001 C -16.278 11.419 -16.006999999999998 11.323 -15.729999999999999 11.323 L -8.765999999999998 11.323 C -8.293999999999999 11.323 -7.861999999999998 11.6 -7.665999999999999 12.029 L -4.419999999999998 19.108 C -3.985999999999998 19.081 -3.549999999999998 19.182000000000002 -3.1329999999999982 19.366 L 6.825 9.932 L 1.009 3.557 C 0.685 3.671 0.346 3.728 0 3.728 C -1.695 3.728 -3.075 2.349 -3.075 0.6540000000000004 C -3.075 0.5060000000000003 -3.063 0.35600000000000037 -3.039 0.20200000000000035 L -7.034000000000001 -2.2629999999999995 L -14.555 -2.2629999999999995 C -14.866 -1.5399999999999996 -15.435 -0.9699999999999995 -16.158 -0.6589999999999994 L -16.158 5.078000000000001 C -16.158 5.389000000000001 -16.276 5.685000000000001 -16.491 5.912000000000001 L -24.105 13.918000000000001 z M -24.71 17.739 L -24.71 13.676000000000002 L -16.93 5.495000000000003 C -16.822 5.382000000000002 -16.762999999999998 5.233000000000002 -16.762999999999998 5.078000000000003 L -16.762999999999998 -1.0809999999999969 L -16.56 -1.1519999999999968 C -15.847999999999999 -1.4009999999999967 -15.296999999999999 -1.9529999999999967 -15.046999999999999 -2.6649999999999965 L -14.975999999999999 -2.8679999999999963 L -6.8629999999999995 -2.8679999999999963 L -2.3599999999999994 -0.0909999999999962 L -2.4069999999999996 0.1190000000000038 C -2.4489999999999994 0.3080000000000038 -2.4699999999999998 0.48300000000000376 -2.4699999999999998 0.6540000000000038 C -2.4699999999999998 2.0150000000000037 -1.3619999999999997 3.1230000000000038 4.440892098500626e-16 3.1230000000000038 C 0.33600000000000046 3.1230000000000038 0.6630000000000005 3.0550000000000037 0.9730000000000004 2.921000000000004 L 1.171 2.836 L 7.673 9.962 L -3.023 20.097 L -3.215 19.998 C -3.6229999999999998 19.785 -4.0569999999999995 19.665000000000003 -4.471 19.723000000000003 L -4.789 19.756000000000004 L -8.216 12.281000000000004 C -8.315 12.066000000000004 -8.53 11.928000000000004 -8.766 11.928000000000004 L -15.73 11.928000000000004 C -15.869 11.928000000000004 -16.004 11.976000000000004 -16.111 12.063000000000004 L -23.648 18.183000000000003 L -23.83 18.072000000000003 C -24.032999999999998 17.950000000000003 -24.252999999999997 17.857000000000003 -24.482999999999997 17.798000000000002 z M -15.505 46.606 C -15.144 46.606 -14.851 46.313 -14.851 45.953 C -14.851 45.592000000000006 -15.144 45.299 -15.505 45.299 C -15.865 45.299 -16.158 45.592 -16.158 45.953 C -16.158 46.313 -15.865000000000002 46.606 -15.505 46.606 M -15.505 44.694 C -14.811 44.694 -14.245000000000001 45.259 -14.245000000000001 45.953 C -14.245000000000001 46.647000000000006 -14.811000000000002 47.212 -15.505 47.212 C -16.199 47.212 -16.763 46.647000000000006 -16.763 45.953 C -16.763 45.259 -16.199 44.694 -15.505000000000003 44.694 M -28.340000000000003 50.147000000000006 C -28.700000000000003 50.147000000000006 -28.993000000000002 50.440000000000005 -28.993000000000002 50.800000000000004 C -28.993000000000002 51.160000000000004 -28.700000000000003 51.45400000000001 -28.340000000000003 51.45400000000001 C -27.979000000000003 51.45400000000001 -27.686000000000003 51.16000000000001 -27.686000000000003 50.800000000000004 C -27.686000000000003 50.440000000000005 -27.979000000000003 50.147000000000006 -28.340000000000003 50.147000000000006 M -28.340000000000003 52.059000000000005 C -29.034000000000002 52.059000000000005 -29.598000000000003 51.49400000000001 -29.598000000000003 50.800000000000004 C -29.598000000000003 50.106 -29.034000000000002 49.541000000000004 -28.340000000000003 49.541000000000004 C -27.646000000000004 49.541000000000004 -27.081000000000003 50.106 -27.081000000000003 50.800000000000004 C -27.081000000000003 51.49400000000001 -27.646000000000004 52.059000000000005 -28.340000000000003 52.059000000000005 M -32.609 41.699000000000005 C -32.609 41.339000000000006 -32.902 41.045 -33.262 41.045 C -33.623 41.045 -33.916000000000004 41.339 -33.916000000000004 41.699000000000005 C -33.916000000000004 42.059000000000005 -33.623000000000005 42.35300000000001 -33.262 42.35300000000001 C -32.902 42.35300000000001 -32.609 42.05900000000001 -32.609 41.699000000000005 M -34.522 41.699000000000005 C -34.522 41.005 -33.957 40.440000000000005 -33.262 40.440000000000005 C -32.568 40.440000000000005 -32.004 41.005 -32.004 41.699000000000005 C -32.004 42.39300000000001 -32.568 42.958000000000006 -33.262 42.958000000000006 C -33.957 42.958000000000006 -34.522 42.39300000000001 -34.522 41.699000000000005 M 25.882000000000005 35.47200000000001 L 25.882000000000005 36.37400000000001 C 26.432000000000006 36.55800000000001 26.920000000000005 36.89300000000001 27.287000000000006 37.34100000000001 L 31.178000000000004 36.315000000000005 L 31.178000000000004 21.955000000000005 C 31.178000000000004 21.751000000000005 31.230000000000004 21.549000000000007 31.327000000000005 21.371000000000006 L 33.581 17.274000000000004 L 33.581 11.62 C 32.601 11.198 31.911 10.297 31.76 9.242 L 21.243 6.877 C 20.92 7.321 20.479 7.673 19.972 7.892 L 19.972 28.994 L 25.532 34.621 C 25.758 34.85 25.882 35.152 25.882 35.472 M 25.276 36.838 L 25.276 35.472 C 25.276 35.313 25.214 35.161 25.101 35.047000000000004 L 19.367 29.243 L 19.367 7.47 L 19.569 7.399 C 20.101 7.213 20.557 6.85 20.851 6.376 L 20.965 6.194 L 32.325 8.748 L 32.34 8.972999999999999 C 32.407000000000004 9.956999999999999 33.053000000000004 10.802 33.983000000000004 11.126999999999999 L 34.18600000000001 11.197999999999999 L 34.18600000000001 17.43 L 31.858000000000008 21.664 C 31.809000000000008 21.752000000000002 31.78300000000001 21.853 31.78300000000001 21.955000000000002 L 31.78300000000001 36.781000000000006 L 27.044000000000008 38.031000000000006 L 26.92300000000001 37.86000000000001 C 26.582000000000008 37.38100000000001 26.079000000000008 37.038000000000004 25.506000000000007 36.895 z M -22.575 56.037000000000006 C -22.575 56.398 -22.282 56.69100000000001 -21.922 56.69100000000001 C -21.562 56.69100000000001 -21.268 56.39800000000001 -21.268 56.037000000000006 C -21.268 55.67700000000001 -21.562 55.38400000000001 -21.922 55.38400000000001 C -22.282 55.38400000000001 -22.575 55.67700000000001 -22.575 56.037000000000006 M -20.663 56.037000000000006 C -20.663 56.73100000000001 -21.228 57.29600000000001 -21.922 57.29600000000001 C -22.616 57.29600000000001 -23.181 56.73100000000001 -23.181 56.037000000000006 C -23.181 55.343 -22.616 54.778000000000006 -21.922 54.778000000000006 C -21.228 54.778000000000006 -20.663 55.343 -20.663 56.037000000000006 M 24.912 39.936 C 25.272 39.936 25.564999999999998 39.643 25.564999999999998 39.283 C 25.564999999999998 38.923 25.272 38.629 24.912 38.629 C 24.552 38.629 24.258 38.922999999999995 24.258 39.283 C 24.258 39.643 24.552 39.936 24.912 39.936 M 24.912 38.024 C 25.605999999999998 38.024 26.171 38.589 26.171 39.283 C 26.171 39.977000000000004 25.605999999999998 40.542 24.912 40.542 C 24.218 40.542 23.653 39.977000000000004 23.653 39.283 C 23.653 38.589 24.218 38.024 24.912 38.024 M 19.414 5.078 C 19.414 4.7170000000000005 19.121000000000002 4.424 18.761000000000003 4.424 C 18.401000000000003 4.424 18.107000000000003 4.7170000000000005 18.107000000000003 5.078 C 18.107000000000003 5.438000000000001 18.401000000000003 5.731 18.761000000000003 5.731 C 19.121000000000002 5.731 19.414 5.438 19.414 5.077999999999999 M 17.502000000000002 5.077999999999999 C 17.502000000000002 4.3839999999999995 18.067000000000004 3.8189999999999995 18.761000000000003 3.8189999999999995 C 19.455000000000002 3.8189999999999995 20.020000000000003 4.3839999999999995 20.020000000000003 5.077999999999999 C 20.020000000000003 5.771999999999999 19.455000000000002 6.337 18.761000000000003 6.337 C 18.067000000000004 6.337 17.502000000000002 5.772 17.502000000000002 5.077999999999999" stroke-linecap="round" />
</g>
</g>
</g>
<g transform="matrix(1.9211538461538462 0 0 1.9211538461538462 683.3096115077855 483.0751291695)" id="text-logo-path-group"  >
<g style=""  paint-order="stroke"   >
		<g transform="matrix(1 0 0 1 0 0)" id="text-logo-path-0"  >
<path style="stroke: rgb(0,0,0); stroke-width: 4; stroke-dasharray: none; stroke-linecap: butt; stroke-dashoffset: 0; stroke-linejoin: miter; stroke-miterlimit: 4; fill: rgb(9,66,143); fill-rule: nonzero; opacity: 1;"  paint-order="stroke"  transform=" translate(-173.07397406260873, 15.315270405472962)" d="M 1.85 -0.76 L 1.85 -0.76 L 14.2 -39.11 Q 14.38 -39.87 15.08 -39.87 L 15.08 -39.87 L 17.98 -39.87 Q 18.59 -39.87 18.86 -39.11 L 18.86 -39.11 L 31.18 -0.76 Q 31.36 0 30.76 0 L 30.76 0 L 28.76 0 Q 28.15 0 27.97 -0.76 L 27.97 -0.76 L 24.61 -10.66 L 8.36 -10.66 L 5.03 -0.76 Q 4.75 0 4.21 0 L 4.21 0 L 2.3 0 Q 1.6 0 1.85 -0.76 Z M 16.38 -36.45 L 9.23 -13.44 L 23.79 -13.44 L 16.62 -36.45 L 16.38 -36.45 Z M 37.05 -8.81 L 37.05 -8.81 L 37.05 -22.83 Q 37.05 -26.91 39.39 -29.26 Q 41.72 -31.61 45.74 -31.61 L 45.74 -31.61 L 58.88 -31.61 Q 59.49 -31.61 59.49 -30.88 L 59.49 -30.88 L 59.49 8.57 Q 59.49 9.26 58.88 9.23 L 58.88 9.23 L 57.1 9.23 Q 56.4 9.23 56.4 8.57 L 56.4 8.57 L 56.4 -3.36 L 56.16 -3.36 Q 55.34 -1.88 54.07 -1.06 Q 52.8 -0.24 51.84 -0.12 Q 50.89 0 49.47 0 L 49.47 0 L 45.74 0 Q 41.72 0 39.39 -2.36 Q 37.05 -4.72 37.05 -8.81 Z M 40.17 -22.71 L 40.17 -8.93 Q 40.17 -6.02 41.66 -4.4 Q 43.14 -2.79 45.99 -2.79 L 45.99 -2.79 L 49.89 -2.79 Q 52.92 -2.79 54.66 -4.53 Q 56.4 -6.27 56.4 -9.17 L 56.4 -9.17 L 56.4 -28.28 Q 56.4 -28.82 55.79 -28.82 L 55.79 -28.82 L 45.99 -28.82 Q 43.14 -28.82 41.66 -27.22 Q 40.17 -25.61 40.17 -22.71 L 40.17 -22.71 Z M 68.48 -8.81 L 68.48 -8.81 L 68.48 -30.88 Q 68.48 -31.64 69.11 -31.61 L 69.11 -31.61 L 70.9 -31.61 Q 71.6 -31.61 71.6 -30.88 L 71.6 -30.88 L 71.6 -8.93 Q 71.6 -6.02 73.08 -4.4 Q 74.56 -2.79 77.41 -2.79 L 77.41 -2.79 L 81.44 -2.79 Q 84.4 -2.79 86.11 -4.37 Q 87.82 -5.96 87.82 -8.87 L 87.82 -8.87 L 87.82 -30.88 Q 87.82 -31.64 88.52 -31.61 L 88.52 -31.61 L 90.31 -31.61 Q 90.91 -31.61 90.94 -30.88 L 90.94 -30.88 L 90.94 -0.76 Q 90.94 0 90.31 0 L 90.31 0 L 88.52 0 Q 87.82 0 87.82 -0.76 L 87.82 -0.76 L 87.82 -3.21 L 87.58 -3.21 Q 85.98 0 81.13 0 L 81.13 0 L 77.05 0 Q 73.08 0 70.78 -2.36 Q 68.48 -4.72 68.48 -8.81 Z M 99.6 -8.81 L 99.6 -8.81 L 99.6 -22.83 Q 99.6 -26.91 101.93 -29.26 Q 104.26 -31.61 108.29 -31.61 L 108.29 -31.61 L 121.43 -31.61 Q 122.03 -31.61 122.03 -30.88 L 122.03 -30.88 L 122.03 -0.76 Q 122.03 0 121.43 0 L 121.43 0 L 119.64 0 Q 118.94 0 118.94 -0.76 L 118.94 -0.76 L 118.94 -3.21 L 118.7 -3.21 Q 117.1 0 112.25 0 L 112.25 0 L 108.29 0 Q 104.26 0 101.93 -2.36 Q 99.6 -4.72 99.6 -8.81 Z M 102.72 -22.71 L 102.72 -8.93 Q 102.72 -6.02 104.2 -4.4 Q 105.68 -2.79 108.53 -2.79 L 108.53 -2.79 L 112.56 -2.79 Q 115.52 -2.79 117.23 -4.37 Q 118.94 -5.96 118.94 -8.87 L 118.94 -8.87 L 118.94 -28.28 Q 118.94 -28.82 118.34 -28.82 L 118.34 -28.82 L 108.53 -28.82 Q 105.68 -28.82 104.2 -27.22 Q 102.72 -25.61 102.72 -22.71 L 102.72 -22.71 Z M 131.96 -0.76 L 131.96 -0.76 L 131.96 -39.11 Q 131.96 -39.87 132.6 -39.87 L 132.6 -39.87 L 134.38 -39.87 Q 135.08 -39.87 135.05 -39.11 L 135.05 -39.11 L 135.05 -3.48 Q 135.05 -2.94 135.69 -2.91 L 135.69 -2.91 L 152.31 -2.91 Q 153.06 -2.91 153.03 -2.24 L 153.03 -2.24 L 153.03 -0.7 Q 153.06 0 152.31 0 L 152.31 0 L 132.6 0 Q 131.99 0 131.96 -0.76 Z M 159.9 -0.76 L 159.9 -0.76 L 159.9 -39.11 Q 159.9 -39.87 160.54 -39.87 L 160.54 -39.87 L 179.67 -39.87 Q 180.43 -39.87 180.43 -39.17 L 180.43 -39.17 L 180.43 -37.75 Q 180.43 -37.05 179.67 -37.08 L 179.67 -37.08 L 163.63 -37.08 Q 163.02 -37.08 162.99 -36.51 L 162.99 -36.51 L 162.99 -22.25 Q 162.99 -21.71 163.63 -21.71 L 163.63 -21.71 L 177.95 -21.71 Q 178.64 -21.71 178.64 -21.01 L 178.64 -21.01 L 178.64 -19.59 Q 178.64 -18.89 177.95 -18.92 L 177.95 -18.92 L 163.63 -18.92 Q 163.02 -18.92 162.99 -18.35 L 162.99 -18.35 L 162.99 -3.36 Q 162.99 -2.82 163.63 -2.79 L 163.63 -2.79 L 179.67 -2.79 Q 180.43 -2.79 180.43 -2.12 L 180.43 -2.12 L 180.43 -0.7 Q 180.43 0 179.67 0 L 179.67 0 L 160.54 0 Q 159.93 0 159.9 -0.76 Z M 189.72 -0.76 L 189.72 -0.76 L 189.72 -39.11 Q 189.72 -39.87 190.36 -39.87 L 190.36 -39.87 L 205.65 -39.87 Q 209.67 -39.87 212 -37.51 Q 214.34 -35.15 214.34 -31.06 L 214.34 -31.06 L 214.34 -8.81 Q 214.34 -4.72 212.02 -2.36 Q 209.7 0 205.65 0 L 205.65 0 L 190.36 0 Q 189.72 0 189.72 -0.76 Z M 192.81 -36.51 L 192.81 -3.36 Q 192.84 -2.79 193.45 -2.79 L 193.45 -2.79 L 205.34 -2.79 Q 208.19 -2.79 209.72 -4.37 Q 211.25 -5.96 211.25 -8.93 L 211.25 -8.93 L 211.25 -30.94 Q 211.25 -33.91 209.72 -35.5 Q 208.19 -37.08 205.34 -37.08 L 205.34 -37.08 L 193.45 -37.08 Q 192.84 -37.08 192.81 -36.51 L 192.81 -36.51 Z M 223.12 5.75 L 223.12 5.75 L 223.12 -8.11 Q 223.12 -8.81 223.81 -8.81 L 223.81 -8.81 L 225.96 -8.81 Q 226.6 -8.81 226.6 -8.11 L 226.6 -8.11 L 226.6 -3.3 Q 226.6 -2.12 225.9 0.24 L 225.9 0.24 L 224.11 5.9 Q 224.05 6.33 223.58 6.33 Q 223.12 6.33 223.12 5.75 Z M 252.6 -0.76 L 252.6 -0.76 L 252.6 -39.11 Q 252.6 -39.87 253.24 -39.87 L 253.24 -39.87 L 255.02 -39.87 Q 255.72 -39.87 255.69 -39.11 L 255.69 -39.11 L 255.69 -3.48 Q 255.69 -2.94 256.33 -2.91 L 256.33 -2.91 L 272.95 -2.91 Q 273.7 -2.91 273.67 -2.24 L 273.67 -2.24 L 273.67 -0.7 Q 273.7 0 272.95 0 L 272.95 0 L 253.24 0 Q 252.63 0 252.6 -0.76 Z M 280.54 -0.76 L 280.54 -0.76 L 280.54 -39.11 Q 280.54 -39.87 281.18 -39.87 L 281.18 -39.87 L 282.97 -39.87 Q 283.66 -39.87 283.63 -39.11 L 283.63 -39.11 L 283.63 -3.48 Q 283.63 -2.94 284.27 -2.91 L 284.27 -2.91 L 300.89 -2.91 Q 301.64 -2.91 301.61 -2.24 L 301.61 -2.24 L 301.61 -0.7 Q 301.64 0 300.89 0 L 300.89 0 L 281.18 0 Q 280.57 0 280.54 -0.76 Z M 307.88 -8.81 L 307.88 -8.81 L 307.88 -31.06 Q 307.88 -35.15 310.2 -37.51 Q 312.51 -39.87 316.54 -39.87 L 316.54 -39.87 L 324.35 -39.87 Q 328.38 -39.87 330.71 -37.51 Q 333.04 -35.15 333.04 -31.06 L 333.04 -31.06 L 333.04 -28.03 Q 333.04 -27.28 332.37 -27.28 L 332.37 -27.28 L 330.62 -27.28 Q 329.92 -27.28 329.95 -28.03 L 329.95 -28.03 L 329.95 -30.94 Q 329.95 -33.91 328.42 -35.5 Q 326.89 -37.08 324.05 -37.08 L 324.05 -37.08 L 316.81 -37.08 Q 313.97 -37.08 312.47 -35.47 Q 310.97 -33.85 310.97 -30.94 L 310.97 -30.94 L 310.97 -8.93 Q 310.97 -6.02 312.45 -4.4 Q 313.94 -2.79 316.81 -2.79 L 316.81 -2.79 L 324.05 -2.79 Q 326.89 -2.79 328.42 -4.37 Q 329.95 -5.96 329.95 -8.93 L 329.95 -8.93 L 329.95 -11.84 Q 329.95 -12.59 330.62 -12.59 L 330.62 -12.59 L 332.37 -12.59 Q 333.07 -12.59 333.04 -11.84 L 333.04 -11.84 L 333.04 -8.81 Q 333.04 -4.72 330.71 -2.36 Q 328.38 0 324.35 0 L 324.35 0 L 316.54 0 Q 312.51 0 310.2 -2.36 Q 307.88 -4.72 307.88 -8.81 Z M 340.97 -0.76 L 340.97 -0.76 L 340.97 -8.11 Q 340.97 -8.81 341.67 -8.81 L 341.67 -8.81 L 343.82 -8.81 Q 344.45 -8.81 344.45 -8.11 L 344.45 -8.11 L 344.45 -0.76 Q 344.45 0 343.82 0 L 343.82 0 L 341.67 0 Q 340.97 0 340.97 -0.76 Z" stroke-linecap="round" />
</g>
</g>
</g>
<g transform="matrix(1.9211538461538462 0 0 1.9211538461538462 686.6026643172806 556.6994756118784)" id="tagline-47c8e776-ee98-406d-a89a-8b4fe8568756-logo-path-group"  >
<g style=""  paint-order="stroke"   >
		<g transform="matrix(1 0 0 1 0 0)" id="tagline-47c8e776-ee98-406d-a89a-8b4fe8568756-logo-path-0"  >
<path style="stroke: rgb(4,28,60); stroke-width: 2; stroke-dasharray: none; stroke-linecap: butt; stroke-dashoffset: 0; stroke-linejoin: miter; stroke-miterlimit: 4; fill: rgb(9,66,143); fill-rule: nonzero; opacity: 1;"  paint-order="stroke"  transform=" translate(-247.42, 8.31)" d="M 2.7 -0.37 L 2.7 -0.37 L 2.7 -18.93 Q 2.7 -19.29 3 -19.29 L 3 -19.29 L 3.87 -19.29 Q 4.2 -19.29 4.2 -18.93 L 4.2 -18.93 L 4.2 -0.37 Q 4.2 0 3.87 0 L 3.87 0 L 3 0 Q 2.71 0 2.7 -0.37 Z M 9.16 -0.37 L 9.16 -0.37 L 9.16 -14.94 Q 9.16 -15.31 9.45 -15.29 L 9.45 -15.29 L 10.31 -15.29 Q 10.65 -15.29 10.65 -14.94 L 10.65 -14.94 L 10.65 -13.68 L 10.77 -13.68 Q 11.1 -14.31 11.94 -14.8 Q 12.77 -15.29 14 -15.29 L 14 -15.29 L 15.18 -15.29 Q 15.51 -15.29 15.51 -14.97 L 15.51 -14.97 L 15.51 -14.25 Q 15.51 -13.92 15.18 -13.95 L 15.18 -13.95 L 13.77 -13.95 Q 12.3 -13.95 11.48 -13.04 Q 10.65 -12.14 10.65 -10.62 L 10.65 -10.62 L 10.65 -0.37 Q 10.65 0 10.31 0 L 10.31 0 L 9.45 0 Q 9.16 0 9.16 -0.37 Z M 18.54 -0.37 L 18.54 -0.37 L 18.54 -14.94 Q 18.54 -15.31 18.84 -15.29 L 18.84 -15.29 L 19.7 -15.29 Q 20.04 -15.29 20.04 -14.94 L 20.04 -14.94 L 20.04 -13.68 L 20.16 -13.68 Q 20.49 -14.31 21.33 -14.8 Q 22.16 -15.29 23.39 -15.29 L 23.39 -15.29 L 24.57 -15.29 Q 24.9 -15.29 24.9 -14.97 L 24.9 -14.97 L 24.9 -14.25 Q 24.9 -13.92 24.57 -13.95 L 24.57 -13.95 L 23.16 -13.95 Q 21.69 -13.95 20.87 -13.04 Q 20.04 -12.14 20.04 -10.62 L 20.04 -10.62 L 20.04 -0.37 Q 20.04 0 19.7 0 L 19.7 0 L 18.84 0 Q 18.54 0 18.54 -0.37 Z M 28.08 -0.37 L 28.08 -0.37 L 28.08 -14.94 Q 28.08 -15.31 28.37 -15.29 L 28.37 -15.29 L 29.25 -15.29 Q 29.59 -15.29 29.58 -14.94 L 29.58 -14.94 L 29.58 -0.37 Q 29.58 0 29.28 0 L 29.28 0 L 28.37 0 Q 28.08 0 28.08 -0.37 Z M 28.08 -17.83 L 28.08 -17.83 L 28.08 -20.7 Q 28.08 -21.04 28.37 -21.04 L 28.37 -21.04 L 29.28 -21.04 Q 29.58 -21.04 29.58 -20.7 L 29.58 -20.7 L 29.58 -17.83 Q 29.58 -17.46 29.28 -17.46 L 29.28 -17.46 L 28.37 -17.46 Q 28.08 -17.46 28.08 -17.83 Z M 34.04 -5.1 L 34.04 -5.1 L 34.04 -11.04 Q 34.04 -13.02 35.17 -14.16 Q 36.3 -15.29 38.25 -15.29 L 38.25 -15.29 L 44.6 -15.29 Q 44.94 -15.29 44.94 -14.94 L 44.94 -14.94 L 44.94 -0.06 Q 44.94 1.92 43.8 3.06 Q 42.66 4.2 40.71 4.2 L 40.71 4.2 L 35.24 4.2 Q 34.91 4.2 34.92 3.87 L 34.92 3.87 L 34.92 3.15 Q 34.92 2.86 35.24 2.86 L 35.24 2.86 L 40.59 2.86 Q 41.97 2.86 42.69 2.09 Q 43.4 1.32 43.4 -0.12 L 43.4 -0.12 L 43.4 -2.43 L 43.29 -2.43 Q 42.54 -0.86 40.17 -0.86 L 40.17 -0.86 L 38.22 -0.86 Q 36.3 -0.86 35.17 -2.01 Q 34.04 -3.15 34.04 -5.1 Z M 35.55 -10.99 L 35.55 -5.16 Q 35.55 -3.75 36.28 -2.99 Q 37.02 -2.23 38.39 -2.23 L 38.39 -2.23 L 40.31 -2.23 Q 41.75 -2.23 42.58 -2.99 Q 43.4 -3.75 43.4 -5.16 L 43.4 -5.16 L 43.4 -13.68 Q 43.4 -13.95 43.14 -13.95 L 43.14 -13.95 L 38.39 -13.95 Q 37.02 -13.95 36.28 -13.18 Q 35.55 -12.42 35.55 -10.99 L 35.55 -10.99 Z M 49.1 -4.26 L 49.1 -4.26 L 49.1 -11.04 Q 49.1 -13.02 50.23 -14.16 Q 51.36 -15.29 53.31 -15.29 L 53.31 -15.29 L 59.66 -15.29 Q 59.96 -15.29 59.96 -14.94 L 59.96 -14.94 L 59.96 -0.37 Q 59.96 0 59.66 0 L 59.66 0 L 58.8 0 Q 58.46 0 58.46 -0.37 L 58.46 -0.37 L 58.46 -1.55 L 58.34 -1.55 Q 57.57 0 55.22 0 L 55.22 0 L 53.31 0 Q 51.36 0 50.23 -1.14 Q 49.1 -2.29 49.1 -4.26 Z M 50.61 -10.99 L 50.61 -4.32 Q 50.61 -2.92 51.33 -2.13 Q 52.05 -1.35 53.42 -1.35 L 53.42 -1.35 L 55.37 -1.35 Q 56.81 -1.35 57.63 -2.12 Q 58.46 -2.89 58.46 -4.29 L 58.46 -4.29 L 58.46 -13.68 Q 58.46 -13.95 58.17 -13.95 L 58.17 -13.95 L 53.42 -13.95 Q 52.05 -13.95 51.33 -13.17 Q 50.61 -12.39 50.61 -10.99 L 50.61 -10.99 Z M 62.96 -14.25 L 62.96 -14.25 L 62.96 -14.97 Q 62.96 -15.31 63.3 -15.29 L 63.3 -15.29 L 65.13 -15.29 Q 65.39 -15.29 65.39 -15.57 L 65.39 -15.57 L 65.39 -18 Q 65.39 -18.37 65.73 -18.35 L 65.73 -18.35 L 66.59 -18.35 Q 66.93 -18.35 66.93 -18 L 66.93 -18 L 66.93 -15.57 Q 66.93 -15.31 67.19 -15.29 L 67.19 -15.29 L 70.77 -15.29 Q 71.1 -15.29 71.09 -14.97 L 71.09 -14.97 L 71.09 -14.25 Q 71.09 -13.96 70.77 -13.95 L 70.77 -13.95 L 67.19 -13.95 Q 66.93 -13.95 66.93 -13.68 L 66.93 -13.68 L 66.93 -4.23 Q 66.93 -2.86 67.71 -2.1 Q 68.48 -1.35 69.89 -1.35 L 69.89 -1.35 L 71.06 -1.35 Q 71.4 -1.35 71.4 -1.03 L 71.4 -1.03 L 71.4 -0.34 Q 71.4 0 71.06 0 L 71.06 0 L 69.77 0 Q 67.79 0 66.59 -1.11 Q 65.39 -2.23 65.39 -4.17 L 65.39 -4.17 L 65.39 -13.68 Q 65.39 -13.95 65.13 -13.95 L 65.13 -13.95 L 63.3 -13.95 Q 62.96 -13.95 62.96 -14.25 Z M 75.01 -0.37 L 75.01 -0.37 L 75.01 -14.94 Q 75.01 -15.31 75.31 -15.29 L 75.31 -15.29 L 76.19 -15.29 Q 76.52 -15.29 76.51 -14.94 L 76.51 -14.94 L 76.51 -0.37 Q 76.51 0 76.22 0 L 76.22 0 L 75.31 0 Q 75.01 0 75.01 -0.37 Z M 75.01 -17.83 L 75.01 -17.83 L 75.01 -20.7 Q 75.01 -21.04 75.31 -21.04 L 75.31 -21.04 L 76.22 -21.04 Q 76.51 -21.04 76.51 -20.7 L 76.51 -20.7 L 76.51 -17.83 Q 76.51 -17.46 76.22 -17.46 L 76.22 -17.46 L 75.31 -17.46 Q 75.01 -17.46 75.01 -17.83 Z M 80.86 -4.26 L 80.86 -4.26 L 80.86 -11.04 Q 80.86 -13.02 81.99 -14.16 Q 83.12 -15.29 85.06 -15.29 L 85.06 -15.29 L 87.64 -15.29 Q 89.59 -15.29 90.73 -14.16 Q 91.88 -13.02 91.88 -11.04 L 91.88 -11.04 L 91.88 -4.26 Q 91.88 -2.29 90.73 -1.14 Q 89.59 0 87.64 0 L 87.64 0 L 85.06 0 Q 83.12 0 81.99 -1.14 Q 80.86 -2.29 80.86 -4.26 Z M 82.37 -11.02 L 82.37 -4.29 Q 82.37 -2.89 83.09 -2.12 Q 83.8 -1.35 85.18 -1.35 L 85.18 -1.35 L 87.52 -1.35 Q 88.9 -1.35 89.63 -2.12 Q 90.37 -2.89 90.37 -4.29 L 90.37 -4.29 L 90.37 -11.02 Q 90.37 -12.42 89.63 -13.18 Q 88.9 -13.95 87.52 -13.95 L 87.52 -13.95 L 85.18 -13.95 Q 83.8 -13.95 83.09 -13.18 Q 82.37 -12.42 82.37 -11.02 L 82.37 -11.02 Z M 96.04 -0.37 L 96.04 -0.37 L 96.04 -14.94 Q 96.04 -15.31 96.33 -15.29 L 96.33 -15.29 L 97.19 -15.29 Q 97.53 -15.29 97.53 -14.94 L 97.53 -14.94 L 97.53 -13.74 L 97.65 -13.74 Q 98.48 -15.29 100.77 -15.29 L 100.77 -15.29 L 102.74 -15.29 Q 104.66 -15.29 105.78 -14.16 Q 106.89 -13.02 106.89 -11.04 L 106.89 -11.04 L 106.89 -0.37 Q 106.89 0 106.58 0 L 106.58 0 L 105.72 0 Q 105.38 0 105.4 -0.37 L 105.4 -0.37 L 105.4 -10.99 Q 105.4 -12.39 104.67 -13.17 Q 103.95 -13.95 102.57 -13.95 L 102.57 -13.95 L 100.62 -13.95 Q 99.18 -13.95 98.36 -13.18 Q 97.53 -12.42 97.53 -11.02 L 97.53 -11.02 L 97.53 -0.37 Q 97.53 0 97.19 0 L 97.19 0 L 96.33 0 Q 96.04 0 96.04 -0.37 Z M 119.11 -4.17 L 119.11 -4.17 L 119.11 -6.72 Q 119.11 -8.22 119.89 -9.33 Q 120.67 -10.44 122.29 -10.5 L 122.29 -10.5 Q 120.91 -12.19 120.91 -14.03 L 120.91 -14.03 L 120.91 -15.12 Q 120.91 -17.07 122.07 -18.18 Q 123.22 -19.29 125.17 -19.29 L 125.17 -19.29 L 125.89 -19.29 Q 127.84 -19.29 128.98 -18.18 Q 130.12 -17.07 130.12 -15.12 L 130.12 -15.12 L 130.12 -13.74 Q 130.12 -13.37 129.79 -13.37 L 129.79 -13.37 L 128.92 -13.37 Q 128.58 -13.37 128.6 -13.74 L 128.6 -13.74 L 128.6 -15.09 Q 128.6 -17.97 125.83 -17.97 L 125.83 -17.97 L 125.26 -17.97 Q 123.88 -17.97 123.16 -17.23 Q 122.45 -16.49 122.45 -15.09 L 122.45 -15.09 L 122.45 -14.03 Q 122.45 -13.11 122.73 -12.45 Q 123.02 -11.79 123.74 -10.99 L 123.74 -10.99 L 125.63 -8.82 L 132.79 -8.82 Q 133.15 -8.82 133.15 -8.5 L 133.15 -8.5 L 133.15 -7.76 Q 133.15 -7.43 132.79 -7.44 L 132.79 -7.44 L 126.77 -7.44 L 132.98 -0.26 Q 133.15 0 132.88 0 L 132.88 0 L 131.75 0 Q 131.46 0 131.24 -0.23 L 131.24 -0.23 L 129.46 -2.26 Q 128.63 0 125.74 0 L 125.74 0 L 123.34 0 Q 121.39 0 120.25 -1.11 Q 119.11 -2.23 119.11 -4.17 Z M 120.62 -6.64 L 120.62 -4.23 Q 120.6 -1.35 123.46 -1.35 L 123.46 -1.35 L 125.74 -1.35 Q 128.09 -1.35 128.44 -3.46 L 128.44 -3.46 L 123.11 -9.57 Q 120.62 -9.42 120.62 -6.64 L 120.62 -6.64 Z M 145.43 -0.37 L 145.43 -0.37 L 145.43 -18.93 Q 145.43 -19.29 145.74 -19.29 L 145.74 -19.29 L 146.6 -19.29 Q 146.94 -19.29 146.92 -18.93 L 146.92 -18.93 L 146.92 -1.68 Q 146.92 -1.42 147.23 -1.41 L 147.23 -1.41 L 155.27 -1.41 Q 155.64 -1.41 155.63 -1.08 L 155.63 -1.08 L 155.63 -0.34 Q 155.64 0 155.27 0 L 155.27 0 L 145.74 0 Q 145.44 0 145.43 -0.37 Z M 158.35 -4.26 L 158.35 -4.26 L 158.35 -11.04 Q 158.35 -13.02 159.48 -14.16 Q 160.61 -15.29 162.55 -15.29 L 162.55 -15.29 L 168.91 -15.29 Q 169.2 -15.29 169.2 -14.94 L 169.2 -14.94 L 169.2 -0.37 Q 169.2 0 168.91 0 L 168.91 0 L 168.05 0 Q 167.71 0 167.71 -0.37 L 167.71 -0.37 L 167.71 -1.55 L 167.59 -1.55 Q 166.82 0 164.47 0 L 164.47 0 L 162.55 0 Q 160.61 0 159.48 -1.14 Q 158.35 -2.29 158.35 -4.26 Z M 159.86 -10.99 L 159.86 -4.32 Q 159.86 -2.92 160.58 -2.13 Q 161.29 -1.35 162.67 -1.35 L 162.67 -1.35 L 164.62 -1.35 Q 166.05 -1.35 166.88 -2.12 Q 167.71 -2.89 167.71 -4.29 L 167.71 -4.29 L 167.71 -13.68 Q 167.71 -13.95 167.42 -13.95 L 167.42 -13.95 L 162.67 -13.95 Q 161.29 -13.95 160.58 -13.17 Q 159.86 -12.39 159.86 -10.99 L 159.86 -10.99 Z M 173.72 -0.37 L 173.72 -0.37 L 173.72 -14.94 Q 173.72 -15.31 174.01 -15.29 L 174.01 -15.29 L 174.87 -15.29 Q 175.21 -15.29 175.21 -14.94 L 175.21 -14.94 L 175.21 -13.74 L 175.33 -13.74 Q 176.16 -15.29 178.45 -15.29 L 178.45 -15.29 L 180.42 -15.29 Q 182.34 -15.29 183.46 -14.16 Q 184.57 -13.02 184.57 -11.04 L 184.57 -11.04 L 184.57 -0.37 Q 184.57 0 184.26 0 L 184.26 0 L 183.4 0 Q 183.06 0 183.08 -0.37 L 183.08 -0.37 L 183.08 -10.99 Q 183.08 -12.39 182.35 -13.17 Q 181.63 -13.95 180.25 -13.95 L 180.25 -13.95 L 178.3 -13.95 Q 176.87 -13.95 176.04 -13.18 Q 175.21 -12.42 175.21 -11.02 L 175.21 -11.02 L 175.21 -0.37 Q 175.21 0 174.87 0 L 174.87 0 L 174.01 0 Q 173.72 0 173.72 -0.37 Z M 188.61 -4.26 L 188.61 -4.26 L 188.61 -11.04 Q 188.61 -13.02 189.73 -14.16 Q 190.84 -15.29 192.76 -15.29 L 192.76 -15.29 L 194.77 -15.29 Q 197.08 -15.29 197.92 -13.74 L 197.92 -13.74 L 198.03 -13.74 L 198.03 -20.73 Q 198.03 -21.09 198.34 -21.09 L 198.34 -21.09 L 199.2 -21.09 Q 199.54 -21.09 199.54 -20.73 L 199.54 -20.73 L 199.54 -0.37 Q 199.54 0 199.2 0 L 199.2 0 L 198.34 0 Q 198.05 0 198.03 -0.37 L 198.03 -0.37 L 198.03 -1.55 L 197.92 -1.55 Q 197.08 0 194.77 0 L 194.77 0 L 192.76 0 Q 190.84 0 189.73 -1.14 Q 188.61 -2.29 188.61 -4.26 Z M 190.12 -10.99 L 190.12 -4.32 Q 190.12 -2.92 190.84 -2.13 Q 191.56 -1.35 192.93 -1.35 L 192.93 -1.35 L 194.94 -1.35 Q 196.38 -1.35 197.2 -2.12 Q 198.03 -2.89 198.03 -4.29 L 198.03 -4.29 L 198.03 -11.02 Q 198.03 -12.42 197.21 -13.18 Q 196.39 -13.95 194.94 -13.95 L 194.94 -13.95 L 192.93 -13.95 Q 191.56 -13.95 190.84 -13.17 Q 190.12 -12.39 190.12 -10.99 L 190.12 -10.99 Z M 203.28 -11.79 L 203.28 -11.79 Q 203.28 -15.29 207.13 -15.29 L 207.13 -15.29 Q 207.14 -15.29 207.16 -15.29 L 207.16 -15.29 L 212.01 -15.29 Q 212.34 -15.29 212.34 -14.97 L 212.34 -14.97 L 212.34 -14.28 Q 212.34 -13.99 212.01 -13.97 L 212.01 -13.97 L 207.3 -13.97 Q 206.07 -13.97 205.46 -13.44 Q 204.84 -12.91 204.84 -12.17 L 204.84 -12.17 L 204.84 -11.48 Q 204.84 -10.65 205.31 -10.17 Q 205.77 -9.7 206.73 -9.36 L 206.73 -9.36 L 210.48 -7.87 Q 212.04 -7.35 212.56 -6.35 Q 213.09 -5.35 213.09 -3.54 Q 213.09 -1.74 212.09 -0.87 Q 211.08 0 208.99 0 L 208.99 0 L 203.76 0 Q 203.42 0 203.44 -0.34 L 203.44 -0.34 L 203.44 -1.03 Q 203.44 -1.32 203.76 -1.32 L 203.76 -1.32 L 208.83 -1.32 Q 211.52 -1.32 211.54 -3.41 L 211.54 -3.41 L 211.54 -4.15 Q 211.54 -6.09 209.85 -6.69 L 209.85 -6.69 L 206.1 -8.13 Q 204.58 -8.73 203.93 -9.54 Q 203.28 -10.36 203.28 -11.79 Z M 216.65 -4.26 L 216.65 -4.26 L 216.65 -11.04 Q 216.65 -13.02 217.78 -14.16 Q 218.91 -15.29 220.85 -15.29 L 220.85 -15.29 L 225.18 -15.29 Q 225.51 -15.29 225.5 -14.97 L 225.5 -14.97 L 225.5 -14.25 Q 225.5 -13.96 225.18 -13.95 L 225.18 -13.95 L 220.97 -13.95 Q 219.59 -13.95 218.88 -13.17 Q 218.16 -12.39 218.16 -10.99 L 218.16 -10.99 L 218.16 -4.32 Q 218.16 -2.92 218.88 -2.13 Q 219.59 -1.35 220.97 -1.35 L 220.97 -1.35 L 225.18 -1.35 Q 225.5 -1.36 225.5 -1.03 L 225.5 -1.03 L 225.5 -0.34 Q 225.5 0 225.18 0 L 225.18 0 L 220.85 0 Q 218.91 0 217.78 -1.14 Q 216.65 -2.29 216.65 -4.26 Z M 228.46 -4.26 L 228.46 -4.26 L 228.46 -11.04 Q 228.46 -13.02 229.58 -14.16 Q 230.71 -15.29 232.66 -15.29 L 232.66 -15.29 L 239.02 -15.29 Q 239.31 -15.29 239.31 -14.94 L 239.31 -14.94 L 239.31 -0.37 Q 239.31 0 239.02 0 L 239.02 0 L 238.15 0 Q 237.82 0 237.82 -0.37 L 237.82 -0.37 L 237.82 -1.55 L 237.7 -1.55 Q 236.92 0 234.58 0 L 234.58 0 L 232.66 0 Q 230.71 0 229.58 -1.14 Q 228.46 -2.29 228.46 -4.26 Z M 229.97 -10.99 L 229.97 -4.32 Q 229.97 -2.92 230.68 -2.13 Q 231.4 -1.35 232.78 -1.35 L 232.78 -1.35 L 234.73 -1.35 Q 236.16 -1.35 236.99 -2.12 Q 237.82 -2.89 237.82 -4.29 L 237.82 -4.29 L 237.82 -13.68 Q 237.82 -13.95 237.52 -13.95 L 237.52 -13.95 L 232.78 -13.95 Q 231.4 -13.95 230.68 -13.17 Q 229.97 -12.39 229.97 -10.99 L 229.97 -10.99 Z M 243.82 4.15 L 243.82 4.15 L 243.82 -14.94 Q 243.82 -15.31 244.12 -15.29 L 244.12 -15.29 L 244.98 -15.29 Q 245.32 -15.29 245.32 -14.94 L 245.32 -14.94 L 245.32 -13.74 L 245.43 -13.74 Q 246.27 -15.29 248.55 -15.29 L 248.55 -15.29 L 250.59 -15.29 Q 252.51 -15.29 253.62 -14.16 Q 254.74 -13.02 254.74 -11.04 L 254.74 -11.04 L 254.74 -4.26 Q 254.74 -2.29 253.63 -1.14 Q 252.52 0 250.59 0 L 250.59 0 L 248.55 0 Q 246.27 0 245.43 -1.55 L 245.43 -1.55 L 245.32 -1.55 L 245.32 4.15 Q 245.32 4.47 244.98 4.47 L 244.98 4.47 L 244.12 4.47 Q 243.82 4.47 243.82 4.15 Z M 245.32 -11.02 L 245.32 -4.29 Q 245.32 -2.89 246.15 -2.12 Q 246.97 -1.35 248.41 -1.35 L 248.41 -1.35 L 250.39 -1.35 Q 251.76 -1.35 252.5 -2.12 Q 253.24 -2.89 253.24 -4.32 L 253.24 -4.32 L 253.24 -10.99 Q 253.24 -12.42 252.5 -13.18 Q 251.76 -13.95 250.39 -13.95 L 250.39 -13.95 L 248.41 -13.95 Q 246.97 -13.95 246.15 -13.18 Q 245.32 -12.42 245.32 -11.02 L 245.32 -11.02 Z M 258.63 -4.26 L 258.63 -4.26 L 258.63 -11.04 Q 258.63 -13.02 259.76 -14.16 Q 260.89 -15.29 262.84 -15.29 L 262.84 -15.29 L 265.42 -15.29 Q 267.36 -15.29 268.51 -14.16 Q 269.65 -13.02 269.65 -11.04 L 269.65 -11.04 L 269.65 -7.24 Q 269.65 -6.87 269.28 -6.87 L 269.28 -6.87 L 260.41 -6.87 Q 260.14 -6.87 260.14 -6.61 L 260.14 -6.61 L 260.14 -4.29 Q 260.14 -2.89 260.86 -2.12 Q 261.58 -1.35 262.95 -1.35 L 262.95 -1.35 L 269.11 -1.35 Q 269.44 -1.35 269.43 -1.03 L 269.43 -1.03 L 269.43 -0.34 Q 269.44 0 269.11 0 L 269.11 0 L 262.84 0 Q 260.89 0 259.76 -1.14 Q 258.63 -2.29 258.63 -4.26 Z M 260.14 -11.02 L 260.14 -8.33 Q 260.14 -8.07 260.41 -8.07 L 260.41 -8.07 L 267.88 -8.07 Q 268.14 -8.07 268.14 -8.33 L 268.14 -8.33 L 268.14 -11.02 Q 268.14 -12.42 267.42 -13.18 Q 266.7 -13.95 265.33 -13.95 L 265.33 -13.95 L 262.95 -13.95 Q 261.58 -13.95 260.86 -13.18 Q 260.14 -12.42 260.14 -11.02 L 260.14 -11.02 Z M 281.98 -0.37 L 281.98 -0.37 L 281.98 -18.93 Q 281.98 -19.29 282.29 -19.29 L 282.29 -19.29 L 283.15 -19.29 Q 283.49 -19.29 283.48 -18.93 L 283.48 -18.93 L 283.48 -1.68 Q 283.48 -1.42 283.78 -1.41 L 283.78 -1.41 L 291.83 -1.41 Q 292.19 -1.41 292.18 -1.08 L 292.18 -1.08 L 292.18 -0.34 Q 292.19 0 291.83 0 L 291.83 0 L 282.29 0 Q 282 0 281.98 -0.37 Z M 295.36 -0.37 L 295.36 -0.37 L 295.36 -14.94 Q 295.36 -15.31 295.65 -15.29 L 295.65 -15.29 L 296.53 -15.29 Q 296.87 -15.29 296.85 -14.94 L 296.85 -14.94 L 296.85 -0.37 Q 296.85 0 296.56 0 L 296.56 0 L 295.65 0 Q 295.36 0 295.36 -0.37 Z M 295.36 -17.83 L 295.36 -17.83 L 295.36 -20.7 Q 295.36 -21.04 295.65 -21.04 L 295.65 -21.04 L 296.56 -21.04 Q 296.85 -21.04 296.85 -20.7 L 296.85 -20.7 L 296.85 -17.83 Q 296.85 -17.46 296.56 -17.46 L 296.56 -17.46 L 295.65 -17.46 Q 295.36 -17.46 295.36 -17.83 Z M 301.32 -5.1 L 301.32 -5.1 L 301.32 -11.04 Q 301.32 -13.02 302.45 -14.16 Q 303.57 -15.29 305.52 -15.29 L 305.52 -15.29 L 311.88 -15.29 Q 312.22 -15.29 312.22 -14.94 L 312.22 -14.94 L 312.22 -0.06 Q 312.22 1.92 311.07 3.06 Q 309.93 4.2 307.98 4.2 L 307.98 4.2 L 302.52 4.2 Q 302.18 4.2 302.2 3.87 L 302.2 3.87 L 302.2 3.15 Q 302.2 2.86 302.52 2.86 L 302.52 2.86 L 307.87 2.86 Q 309.24 2.86 309.96 2.09 Q 310.68 1.32 310.68 -0.12 L 310.68 -0.12 L 310.68 -2.43 L 310.56 -2.43 Q 309.81 -0.86 307.44 -0.86 L 307.44 -0.86 L 305.49 -0.86 Q 303.57 -0.86 302.45 -2.01 Q 301.32 -3.15 301.32 -5.1 Z M 302.83 -10.99 L 302.83 -5.16 Q 302.83 -3.75 303.56 -2.99 Q 304.29 -2.23 305.67 -2.23 L 305.67 -2.23 L 307.59 -2.23 Q 309.02 -2.23 309.85 -2.99 Q 310.68 -3.75 310.68 -5.16 L 310.68 -5.16 L 310.68 -13.68 Q 310.68 -13.95 310.42 -13.95 L 310.42 -13.95 L 305.67 -13.95 Q 304.29 -13.95 303.56 -13.18 Q 302.83 -12.42 302.83 -10.99 L 302.83 -10.99 Z M 316.68 -0.37 L 316.68 -0.37 L 316.68 -20.73 Q 316.68 -21.09 316.98 -21.09 L 316.98 -21.09 L 317.84 -21.09 Q 318.18 -21.09 318.18 -20.73 L 318.18 -20.73 L 318.18 -13.74 L 318.3 -13.74 Q 319.13 -15.29 321.42 -15.29 L 321.42 -15.29 L 323.39 -15.29 Q 325.31 -15.29 326.43 -14.16 Q 327.54 -13.02 327.54 -11.04 L 327.54 -11.04 L 327.54 -0.37 Q 327.54 0 327.23 0 L 327.23 0 L 326.37 0 Q 326.03 0 326.04 -0.37 L 326.04 -0.37 L 326.04 -10.99 Q 326.04 -12.39 325.32 -13.17 Q 324.59 -13.95 323.22 -13.95 L 323.22 -13.95 L 321.27 -13.95 Q 319.83 -13.95 319.01 -13.18 Q 318.18 -12.42 318.18 -11.02 L 318.18 -11.02 L 318.18 -0.37 Q 318.18 0 317.84 0 L 317.84 0 L 316.98 0 Q 316.68 0 316.68 -0.37 Z M 330.38 -14.25 L 330.38 -14.25 L 330.38 -14.97 Q 330.38 -15.31 330.72 -15.29 L 330.72 -15.29 L 332.55 -15.29 Q 332.81 -15.29 332.81 -15.57 L 332.81 -15.57 L 332.81 -18 Q 332.81 -18.37 333.15 -18.35 L 333.15 -18.35 L 334.01 -18.35 Q 334.35 -18.35 334.35 -18 L 334.35 -18 L 334.35 -15.57 Q 334.35 -15.31 334.61 -15.29 L 334.61 -15.29 L 338.19 -15.29 Q 338.53 -15.29 338.51 -14.97 L 338.51 -14.97 L 338.51 -14.25 Q 338.51 -13.96 338.19 -13.95 L 338.19 -13.95 L 334.61 -13.95 Q 334.35 -13.95 334.35 -13.68 L 334.35 -13.68 L 334.35 -4.23 Q 334.35 -2.86 335.13 -2.1 Q 335.9 -1.35 337.31 -1.35 L 337.31 -1.35 L 338.48 -1.35 Q 338.82 -1.35 338.82 -1.03 L 338.82 -1.03 L 338.82 -0.34 Q 338.82 0 338.48 0 L 338.48 0 L 337.19 0 Q 335.21 0 334.01 -1.11 Q 332.81 -2.23 332.81 -4.17 L 332.81 -4.17 L 332.81 -13.68 Q 332.81 -13.95 332.55 -13.95 L 332.55 -13.95 L 330.72 -13.95 Q 330.38 -13.95 330.38 -14.25 Z M 342.44 -0.37 L 342.44 -0.37 L 342.44 -14.94 Q 342.44 -15.31 342.73 -15.29 L 342.73 -15.29 L 343.61 -15.29 Q 343.95 -15.29 343.93 -14.94 L 343.93 -14.94 L 343.93 -0.37 Q 343.93 0 343.64 0 L 343.64 0 L 342.73 0 Q 342.44 0 342.44 -0.37 Z M 342.44 -17.83 L 342.44 -17.83 L 342.44 -20.7 Q 342.44 -21.04 342.73 -21.04 L 342.73 -21.04 L 343.64 -21.04 Q 343.93 -21.04 343.93 -20.7 L 343.93 -20.7 L 343.93 -17.83 Q 343.93 -17.46 343.64 -17.46 L 343.64 -17.46 L 342.73 -17.46 Q 342.44 -17.46 342.44 -17.83 Z M 348.59 -0.37 L 348.59 -0.37 L 348.59 -14.94 Q 348.59 -15.31 348.88 -15.29 L 348.88 -15.29 L 349.75 -15.29 Q 350.08 -15.29 350.08 -14.94 L 350.08 -14.94 L 350.08 -13.74 L 350.2 -13.74 Q 351.04 -15.29 353.32 -15.29 L 353.32 -15.29 L 355.3 -15.29 Q 357.22 -15.29 358.33 -14.16 Q 359.44 -13.02 359.44 -11.04 L 359.44 -11.04 L 359.44 -0.37 Q 359.44 0 359.14 0 L 359.14 0 L 358.27 0 Q 357.93 0 357.95 -0.37 L 357.95 -0.37 L 357.95 -10.99 Q 357.95 -12.39 357.22 -13.17 Q 356.5 -13.95 355.12 -13.95 L 355.12 -13.95 L 353.17 -13.95 Q 351.74 -13.95 350.91 -13.18 Q 350.08 -12.42 350.08 -11.02 L 350.08 -11.02 L 350.08 -0.37 Q 350.08 0 349.75 0 L 349.75 0 L 348.88 0 Q 348.59 0 348.59 -0.37 Z M 363.6 -5.1 L 363.6 -5.1 L 363.6 -11.04 Q 363.6 -13.02 364.73 -14.16 Q 365.86 -15.29 367.81 -15.29 L 367.81 -15.29 L 374.17 -15.29 Q 374.5 -15.29 374.5 -14.94 L 374.5 -14.94 L 374.5 -0.06 Q 374.5 1.92 373.36 3.06 Q 372.22 4.2 370.27 4.2 L 370.27 4.2 L 364.8 4.2 Q 364.47 4.2 364.48 3.87 L 364.48 3.87 L 364.48 3.15 Q 364.48 2.86 364.8 2.86 L 364.8 2.86 L 370.15 2.86 Q 371.53 2.86 372.25 2.09 Q 372.96 1.32 372.96 -0.12 L 372.96 -0.12 L 372.96 -2.43 L 372.85 -2.43 Q 372.1 -0.86 369.73 -0.86 L 369.73 -0.86 L 367.78 -0.86 Q 365.86 -0.86 364.73 -2.01 Q 363.6 -3.15 363.6 -5.1 Z M 365.11 -10.99 L 365.11 -5.16 Q 365.11 -3.75 365.84 -2.99 Q 366.58 -2.23 367.95 -2.23 L 367.95 -2.23 L 369.87 -2.23 Q 371.31 -2.23 372.14 -2.99 Q 372.96 -3.75 372.96 -5.16 L 372.96 -5.16 L 372.96 -13.68 Q 372.96 -13.95 372.7 -13.95 L 372.7 -13.95 L 367.95 -13.95 Q 366.58 -13.95 365.84 -13.18 Q 365.11 -12.42 365.11 -10.99 L 365.11 -10.99 Z M 385.8 -14.28 L 385.8 -14.28 L 385.8 -14.97 Q 385.8 -15.31 386.12 -15.29 L 386.12 -15.29 L 388.04 -15.29 Q 388.3 -15.29 388.32 -15.57 L 388.32 -15.57 L 388.32 -16.89 Q 388.32 -21.09 392.12 -21.09 L 392.12 -21.09 L 392.84 -21.09 Q 393.21 -21.09 393.21 -20.76 L 393.21 -20.76 L 393.21 -20.07 Q 393.21 -19.73 392.84 -19.75 L 392.84 -19.75 L 392.27 -19.75 Q 390.92 -19.75 390.38 -19.02 Q 389.84 -18.3 389.84 -16.83 L 389.84 -16.83 L 389.84 -15.57 Q 389.85 -15.29 390.12 -15.29 L 390.12 -15.29 L 392.84 -15.29 Q 393.21 -15.29 393.21 -14.97 L 393.21 -14.97 L 393.21 -14.28 Q 393.21 -13.95 392.84 -13.95 L 392.84 -13.95 L 390.12 -13.95 Q 389.85 -13.95 389.84 -13.68 L 389.84 -13.68 L 389.84 -0.37 Q 389.84 0 389.52 0 L 389.52 0 L 388.64 0 Q 388.3 0 388.32 -0.37 L 388.32 -0.37 L 388.32 -13.68 Q 388.32 -13.95 388.04 -13.95 L 388.04 -13.95 L 386.12 -13.95 Q 385.78 -13.95 385.8 -14.28 Z M 395.74 -4.26 L 395.74 -4.26 L 395.74 -11.04 Q 395.74 -13.02 396.87 -14.16 Q 398 -15.29 399.95 -15.29 L 399.95 -15.29 L 402.52 -15.29 Q 404.47 -15.29 405.62 -14.16 Q 406.76 -13.02 406.76 -11.04 L 406.76 -11.04 L 406.76 -4.26 Q 406.76 -2.29 405.62 -1.14 Q 404.47 0 402.52 0 L 402.52 0 L 399.95 0 Q 398 0 396.87 -1.14 Q 395.74 -2.29 395.74 -4.26 Z M 397.25 -11.02 L 397.25 -4.29 Q 397.25 -2.89 397.97 -2.12 Q 398.69 -1.35 400.06 -1.35 L 400.06 -1.35 L 402.41 -1.35 Q 403.78 -1.35 404.52 -2.12 Q 405.25 -2.89 405.25 -4.29 L 405.25 -4.29 L 405.25 -11.02 Q 405.25 -12.42 404.52 -13.18 Q 403.78 -13.95 402.41 -13.95 L 402.41 -13.95 L 400.06 -13.95 Q 398.69 -13.95 397.97 -13.18 Q 397.25 -12.42 397.25 -11.02 L 397.25 -11.02 Z M 410.92 -0.37 L 410.92 -0.37 L 410.92 -14.94 Q 410.92 -15.31 411.21 -15.29 L 411.21 -15.29 L 412.08 -15.29 Q 412.41 -15.29 412.41 -14.94 L 412.41 -14.94 L 412.41 -13.68 L 412.53 -13.68 Q 412.87 -14.31 413.7 -14.8 Q 414.54 -15.29 415.77 -15.29 L 415.77 -15.29 L 416.94 -15.29 Q 417.28 -15.29 417.28 -14.97 L 417.28 -14.97 L 417.28 -14.25 Q 417.28 -13.92 416.94 -13.95 L 416.94 -13.95 L 415.53 -13.95 Q 414.07 -13.95 413.24 -13.04 Q 412.41 -12.14 412.41 -10.62 L 412.41 -10.62 L 412.41 -0.37 Q 412.41 0 412.08 0 L 412.08 0 L 411.21 0 Q 410.92 0 410.92 -0.37 Z M 426.59 -18.27 L 426.59 -18.27 L 426.59 -18.96 Q 426.59 -19.29 426.94 -19.29 L 426.94 -19.29 L 437.75 -19.29 Q 438.12 -19.29 438.11 -18.96 L 438.11 -18.96 L 438.11 -18.27 Q 438.11 -17.93 437.75 -17.94 L 437.75 -17.94 L 433.4 -17.94 Q 433.11 -17.94 433.1 -17.67 L 433.1 -17.67 L 433.1 -0.37 Q 433.1 0 432.8 0 L 432.8 0 L 431.92 0 Q 431.59 0 431.6 -0.37 L 431.6 -0.37 L 431.6 -17.67 Q 431.6 -17.93 431.29 -17.94 L 431.29 -17.94 L 426.94 -17.94 Q 426.58 -17.94 426.59 -18.27 Z M 440.6 -4.26 L 440.6 -4.26 L 440.6 -11.04 Q 440.6 -13.02 441.72 -14.16 Q 442.85 -15.29 444.8 -15.29 L 444.8 -15.29 L 447.38 -15.29 Q 449.33 -15.29 450.47 -14.16 Q 451.61 -13.02 451.61 -11.04 L 451.61 -11.04 L 451.61 -7.24 Q 451.61 -6.87 451.25 -6.87 L 451.25 -6.87 L 442.37 -6.87 Q 442.1 -6.87 442.1 -6.61 L 442.1 -6.61 L 442.1 -4.29 Q 442.1 -2.89 442.82 -2.12 Q 443.54 -1.35 444.92 -1.35 L 444.92 -1.35 L 451.07 -1.35 Q 451.41 -1.35 451.39 -1.03 L 451.39 -1.03 L 451.39 -0.34 Q 451.41 0 451.07 0 L 451.07 0 L 444.8 0 Q 442.85 0 441.72 -1.14 Q 440.6 -2.29 440.6 -4.26 Z M 442.1 -11.02 L 442.1 -8.33 Q 442.1 -8.07 442.37 -8.07 L 442.37 -8.07 L 449.84 -8.07 Q 450.1 -8.07 450.1 -8.33 L 450.1 -8.33 L 450.1 -11.02 Q 450.1 -12.42 449.38 -13.18 Q 448.67 -13.95 447.29 -13.95 L 447.29 -13.95 L 444.92 -13.95 Q 443.54 -13.95 442.82 -13.18 Q 442.1 -12.42 442.1 -11.02 L 442.1 -11.02 Z M 454.2 -0.37 L 454.2 -0.37 L 458.55 -7.79 L 454.42 -14.94 Q 454.19 -15.31 454.57 -15.29 L 454.57 -15.29 L 455.65 -15.29 Q 455.99 -15.29 456.15 -14.94 L 456.15 -14.94 L 459.55 -8.82 L 459.67 -8.82 L 462.91 -14.94 Q 463.11 -15.31 463.42 -15.29 L 463.42 -15.29 L 464.5 -15.29 Q 464.9 -15.29 464.65 -14.94 L 464.65 -14.94 L 460.61 -7.87 L 465.01 -0.37 Q 465.22 0 464.85 0 L 464.85 0 L 463.65 0 Q 463.42 0 463.24 -0.37 L 463.24 -0.37 L 459.67 -6.78 L 459.55 -6.78 L 455.98 -0.37 Q 455.76 0 455.46 0 L 455.46 0 L 454.37 0 Q 453.97 0 454.2 -0.37 Z M 467.72 -4.26 L 467.72 -4.26 L 467.72 -11.04 Q 467.72 -13.02 468.85 -14.16 Q 469.98 -15.29 471.93 -15.29 L 471.93 -15.29 L 478.29 -15.29 Q 478.58 -15.29 478.58 -14.94 L 478.58 -14.94 L 478.58 -0.37 Q 478.58 0 478.29 0 L 478.29 0 L 477.42 0 Q 477.08 0 477.08 -0.37 L 477.08 -0.37 L 477.08 -1.55 L 476.97 -1.55 Q 476.19 0 473.85 0 L 473.85 0 L 471.93 0 Q 469.98 0 468.85 -1.14 Q 467.72 -2.29 467.72 -4.26 Z M 469.23 -10.99 L 469.23 -4.32 Q 469.23 -2.92 469.95 -2.13 Q 470.67 -1.35 472.05 -1.35 L 472.05 -1.35 L 473.99 -1.35 Q 475.43 -1.35 476.26 -2.12 Q 477.08 -2.89 477.08 -4.29 L 477.08 -4.29 L 477.08 -13.68 Q 477.08 -13.95 476.79 -13.95 L 476.79 -13.95 L 472.05 -13.95 Q 470.67 -13.95 469.95 -13.17 Q 469.23 -12.39 469.23 -10.99 L 469.23 -10.99 Z M 482.33 -11.79 L 482.33 -11.79 Q 482.33 -15.29 486.18 -15.29 L 486.18 -15.29 Q 486.2 -15.29 486.21 -15.29 L 486.21 -15.29 L 491.06 -15.29 Q 491.4 -15.29 491.4 -14.97 L 491.4 -14.97 L 491.4 -14.28 Q 491.4 -13.99 491.06 -13.97 L 491.06 -13.97 L 486.36 -13.97 Q 485.13 -13.97 484.51 -13.44 Q 483.9 -12.91 483.9 -12.17 L 483.9 -12.17 L 483.9 -11.48 Q 483.9 -10.65 484.36 -10.17 Q 484.82 -9.7 485.79 -9.36 L 485.79 -9.36 L 489.54 -7.87 Q 491.09 -7.35 491.62 -6.35 Q 492.14 -5.35 492.14 -3.54 Q 492.14 -1.74 491.14 -0.87 Q 490.14 0 488.04 0 L 488.04 0 L 482.81 0 Q 482.48 0 482.49 -0.34 L 482.49 -0.34 L 482.49 -1.03 Q 482.49 -1.32 482.81 -1.32 L 482.81 -1.32 L 487.88 -1.32 Q 490.58 -1.32 490.59 -3.41 L 490.59 -3.41 L 490.59 -4.15 Q 490.59 -6.09 488.91 -6.69 L 488.91 -6.69 L 485.16 -8.13 Q 483.63 -8.73 482.98 -9.54 Q 482.33 -10.36 482.33 -11.79 Z" stroke-linecap="round" />
</g>
</g>
</g>
</svg>